<svg xmlns="http://www.w3.org/2000/svg" viewBox="0 0 447 447">
<g transform="translate(0.000000,447.000000) scale(0.100000,-0.100000)" fill="#890B0C">
<path d="M2996 4432 c-2 -4 11 -6 30 -4 19 2 34 6 34 8 0 8 -59 4 -64 -4z
M3085 4410 c10 -11 20 -20 23 -20 3 0 -3 9 -13 20 -10 11 -20 20 -23 20 -3 0
3 -9 13 -20z M2904 4368 l-19 -23 23 19 c21 18 27 26 19 26 -2 0 -12 -10 -23
-22z M2148 4335 c-2 -1 -52 -5 -113 -8 -321 -17 -675 -123 -945 -282 -95 -56
-299 -230 -371 -315 -23 -27 -44 -48 -48 -48 -17 5 -72 -36 -102 -77 -19 -26
-57 -73 -86 -105 -28 -32 -63 -76 -77 -98 -51 -81 -107 -192 -101 -201 3 -6
-1 -13 -8 -18 -19 -11 -79 -161 -71 -175 4 -7 3 -8 -4 -4 -8 5 -12 0 -12 -13
0 -11 -4 -22 -9 -25 -9 -6 -25 -64 -22 -83 1 -7 -10 -37 -24 -67 -32 -67 -43
-134 -41 -250 1 -61 6 -91 14 -94 7 -2 9 -9 5 -15 -4 -7 1 -6 10 2 9 7 17 12
18 10 1 -2 3 -26 5 -54 7 -99 36 -275 46 -275 5 0 7 -4 4 -9 -4 -5 -2 -20 3
-33 7 -17 10 -18 10 -5 1 19 21 24 22 5 7 -127 35 -311 49 -316 5 -2 6 -10 3
-18 -3 -8 0 -14 6 -14 6 0 8 -6 5 -14 -13 -34 96 -293 183 -434 59 -97 166
-237 233 -308 28 -29 49 -58 46 -63 -4 -5 -1 -13 5 -17 8 -5 10 -2 5 7 -4 8 4
1 17 -15 l25 -29 57 38 c31 20 91 55 133 77 42 22 94 54 117 72 22 17 47 36
56 41 64 40 109 78 217 184 67 66 122 118 122 115 0 -2 14 8 30 23 38 34 38
48 -2 63 -77 28 -115 53 -114 74 1 17 8 22 36 24 47 4 96 30 109 59 11 23 45
31 56 13 4 -6 12 -9 18 -8 11 2 124 -66 137 -83 3 -3 24 -18 48 -33 24 -15 57
-47 75 -72 28 -40 34 -44 63 -38 18 3 42 3 53 -1 20 -6 20 -8 6 -36 -9 -16
-27 -36 -41 -45 l-25 -17 37 -38 c28 -28 37 -48 41 -82 7 -63 -9 -90 -53 -85
-20 2 -34 0 -34 -7 -1 -69 -24 -243 -35 -266 -9 -16 -16 -32 -16 -36 0 -5 -10
-24 -21 -43 -45 -74 -95 -132 -139 -161 -25 -16 -54 -37 -63 -47 -15 -17 -14
-20 7 -39 12 -11 44 -33 70 -48 41 -24 55 -27 97 -21 39 5 52 3 66 -11 24 -24
110 -24 261 -1 38 6 60 14 57 20 -4 6 1 8 13 4 10 -3 52 5 93 19 73 25 89 23
90 -9 0 -5 3 -7 6 -4 3 4 -3 24 -14 45 -70 135 -87 276 -60 495 l12 98 -27 28
c-21 22 -27 38 -27 74 0 26 5 50 10 53 6 3 10 14 10 24 0 23 40 60 76 70 39
11 36 46 -7 106 -22 31 -33 59 -37 95 -2 28 -9 53 -14 56 -4 3 -30 -1 -56 -9
-63 -20 -166 -29 -197 -17 -34 13 -125 122 -125 150 0 15 -84 96 -135 131 -63
42 -134 115 -141 145 -8 33 1 66 32 111 32 47 26 41 193 209 78 77 141 146
141 152 0 6 -10 13 -22 16 -122 22 -238 56 -313 91 -91 43 -165 103 -165 134
1 47 12 59 76 80 57 18 88 21 263 21 109 0 201 3 204 6 4 4 -7 24 -23 44 -61
76 -33 91 105 55 120 -31 162 -30 184 6 72 118 164 227 248 295 37 30 85 68
105 84 l37 30 -44 45 c-40 42 -55 50 -80 45 -5 -1 -7 2 -2 6 4 4 1 14 -7 23
-20 23 -36 79 -36 122 0 22 -3 39 -7 39 -5 0 -28 -16 -52 -35 -44 -35 -90 -46
-92 -22 -4 49 2 69 31 106 18 22 36 41 39 41 3 0 27 26 53 59 32 39 70 108
113 207 36 82 81 179 99 215 l34 66 -57 16 c-91 27 -166 36 -351 42 -96 4
-198 8 -227 9 -29 2 -54 2 -55 1z m469 -200 c30 -21 49 -85 34 -113 -47 -87
-187 -37 -166 58 13 59 85 88 132 55z m-609 -37 c18 -18 15 -39 -9 -64 -11
-12 -21 -31 -22 -43 -1 -11 -5 -21 -9 -21 -4 0 -8 -6 -8 -14 0 -7 18 4 40 26
38 38 43 40 86 35 81 -9 140 -88 151 -200 5 -58 3 -65 -22 -95 -15 -18 -55
-47 -89 -64 -55 -28 -66 -30 -128 -25 -84 7 -136 31 -145 65 -10 41 19 55 100
47 79 -8 119 4 136 41 14 31 14 94 0 94 -5 0 -7 -5 -3 -12 4 -6 3 -8 -3 -5 -6
4 -31 -4 -55 -18 -60 -34 -126 -34 -161 0 -25 25 -43 97 -25 103 4 2 8 11 8
19 0 17 35 69 78 116 27 29 60 35 80 15z m-331 -114 c4 -10 -11 -32 -42 -64
-30 -31 -45 -53 -40 -61 5 -7 4 -10 -3 -5 -15 9 -26 -54 -18 -99 4 -20 38 -82
76 -139 72 -108 82 -137 53 -168 -32 -36 -67 -23 -127 45 -49 55 -100 96 -123
99 -5 0 -12 2 -18 3 -5 1 -37 9 -69 16 -46 11 -61 19 -67 37 -5 14 -5 21 0 17
5 -3 12 -1 16 5 3 5 34 10 68 10 44 0 58 3 47 10 -11 7 -12 10 -2 10 9 0 11 7
6 23 -18 54 15 154 69 205 65 61 160 92 174 56z m117 -19 c28 -28 26 -48 -7
-62 -33 -14 -56 -5 -64 24 -4 20 -1 31 17 45 28 22 24 23 54 -7z m-539 -270
c45 -44 25 -147 -49 -244 -28 -37 -23 -61 15 -82 17 -9 25 -7 46 13 26 24 78
99 76 108 -1 3 14 5 33 5 65 -3 93 -60 60 -123 -17 -32 -91 -105 -124 -121
-21 -11 -133 -12 -127 -1 2 3 -14 16 -36 29 -21 14 -36 27 -34 30 3 2 -3 14
-14 25 -28 30 -61 98 -68 139 -9 58 20 136 75 195 42 45 53 52 86 52 26 0 44
-7 61 -25z m868 -223 c8 -21 19 -55 23 -76 5 -28 9 -34 16 -24 7 9 8 4 3 -15
-4 -19 -2 -26 5 -22 5 3 10 16 10 28 0 38 11 63 33 76 18 12 23 11 38 -8 20
-24 19 -67 -1 -116 -15 -38 -1 -67 56 -110 31 -24 40 -37 39 -60 0 -48 -32
-44 -85 10 -42 42 -71 60 -53 33 10 -17 4 -61 -10 -70 -6 -3 -24 0 -40 9 -16
8 -27 11 -24 6 9 -14 -55 -51 -99 -58 -34 -6 -45 -3 -71 19 -16 14 -34 22 -38
18 -5 -4 -5 -1 -1 5 4 7 0 23 -8 35 -9 12 -16 17 -16 11 0 -7 4 -14 8 -17 13
-8 2 -63 -14 -77 -11 -9 -17 -9 -28 0 -15 12 -32 -1 -22 -17 8 -14 -70 -14
-81 0 -6 7 -15 27 -21 43 -6 17 -11 24 -11 17 -1 -7 -5 -10 -11 -7 -5 3 -7 0
-4 -8 3 -8 1 -18 -4 -21 -6 -3 -8 -24 -5 -46 5 -35 3 -40 -14 -40 -11 0 -30
12 -43 27 l-24 28 -6 -30 c-11 -50 -28 -73 -76 -101 -44 -26 -47 -26 -102 -13
-31 7 -61 13 -67 14 -5 0 -24 17 -41 37 -18 20 -35 34 -39 30 -5 -4 -5 -2 -1
5 4 7 -1 24 -10 38 -14 22 -15 32 -4 73 17 68 49 120 81 131 40 14 49 -2 49
-92 0 -56 3 -76 12 -71 7 4 8 3 4 -5 -10 -16 13 -43 31 -37 8 4 11 1 7 -5 -4
-7 6 -9 27 -7 33 3 34 4 37 56 2 30 8 55 15 57 36 11 68 15 64 8 -2 -4 4 -26
14 -48 46 -100 -1 45 -64 197 -8 20 -8 30 2 42 23 28 39 18 57 -36 28 -87 30
-89 62 -72 15 7 34 14 42 14 21 0 102 -55 93 -63 -3 -4 -1 -7 6 -7 8 0 10 8 7
20 -3 11 -9 29 -12 40 -3 11 -9 20 -13 20 -3 0 -7 15 -6 33 0 27 4 32 25 32
18 0 30 -9 41 -30 19 -37 39 -43 39 -11 0 14 11 38 25 54 20 24 34 31 74 34
27 1 47 0 45 -4 -2 -4 0 -9 5 -13 6 -3 9 -18 8 -34 -1 -20 -6 -27 -18 -24 -20
6 -49 -33 -49 -64 0 -13 10 -33 22 -45 l22 -22 14 22 c8 12 25 22 38 22 24 0
32 14 15 24 -4 3 -14 33 -20 66 -7 33 -15 60 -19 60 -4 0 -8 10 -8 23 -1 12
-5 47 -9 78 -6 45 -4 58 9 72 24 23 49 8 69 -41z m500 -9 c11 -10 31 -35 44
-57 21 -33 23 -41 11 -52 -12 -12 -20 -10 -54 16 -55 42 -69 38 -39 -10 23
-37 24 -44 13 -68 -21 -44 -47 -34 -96 36 -46 66 -64 72 -55 19 4 -26 -1 -40
-21 -64 -14 -16 -22 -34 -18 -38 4 -5 -1 -5 -11 -2 -11 4 -16 3 -12 -3 8 -13
45 -13 45 -1 0 18 52 71 68 71 15 0 15 -2 2 -10 -13 -9 -7 -14 13 -11 10 1 10
0 -17 -55 -32 -67 -47 -78 -96 -71 -29 4 -38 2 -33 -6 3 -7 2 -8 -3 -4 -5 5
-9 12 -9 15 0 13 -32 52 -37 46 -3 -3 -9 0 -14 7 -4 8 -3 10 4 5 9 -5 10 5 6
37 -5 32 -2 55 10 77 8 18 13 38 9 44 -3 6 -3 8 2 4 4 -4 20 -1 35 7 23 12 30
12 48 -1 24 -16 37 -5 27 26 -3 10 -1 29 5 41 10 17 18 20 41 15 17 -3 28 -2
25 2 -9 16 88 2 107 -15z m-819 -86 c8 -13 7 -20 -3 -26 -19 -12 -41 -3 -41
18 0 35 25 39 44 8z m-789 -43 c33 -8 66 -16 73 -16 6 -1 10 -4 7 -6 -3 -3 14
-18 37 -34 24 -15 38 -28 33 -28 -6 0 -17 6 -25 13 -8 6 -5 0 8 -14 12 -14 22
-31 22 -37 0 -7 6 -15 13 -17 9 -4 11 -32 6 -118 -3 -61 -8 -121 -11 -132 -4
-16 14 -28 111 -76 128 -64 139 -71 165 -111 22 -33 15 -72 -15 -88 -17 -9
-31 -7 -72 14 -29 13 -70 30 -92 37 -22 6 -61 22 -86 35 -49 24 -209 79 -221
76 -5 -1 -8 2 -8 7 0 5 -33 22 -72 37 -151 56 -181 84 -139 128 14 15 17 26
11 36 -18 28 -12 148 10 190 11 21 24 42 30 45 6 4 7 12 4 18 -4 7 -4 9 1 5 4
-4 20 1 35 12 60 43 88 47 175 24z m1418 -69 c-3 -9 -8 -14 -10 -11 -3 3 -2 9
2 15 9 16 15 13 8 -4z m-1773 -270 c22 -36 27 -114 8 -133 -20 -20 -63 -14
-87 12 -15 15 -25 42 -28 70 -5 38 -2 48 20 70 31 31 60 25 87 -19z m215 -181
c118 -33 246 -100 263 -137 12 -24 11 -32 -3 -54 -20 -30 -44 -28 -134 11 -31
14 -102 39 -158 56 -72 21 -106 37 -113 50 -6 12 -15 18 -20 15 -5 -3 -11 -1
-15 5 -3 5 -1 10 5 10 6 0 8 5 5 10 -10 16 4 48 23 53 35 9 58 6 147 -19z
m-225 -29 c11 -10 24 -14 31 -9 8 4 10 3 5 -4 -4 -7 9 -23 33 -39 22 -16 40
-32 41 -36 0 -5 -5 -5 -11 -1 -6 3 1 -12 14 -33 39 -62 57 -136 57 -239 0
-108 5 -115 85 -107 74 7 241 -23 292 -53 67 -39 71 -88 11 -121 -29 -15 -58
-18 -223 -17 -104 1 -224 6 -265 12 -41 6 -111 13 -155 16 -44 2 -93 9 -108
15 -16 6 -31 11 -34 11 -22 0 -62 46 -73 85 -7 25 -16 45 -20 45 -4 0 -5 12
-2 26 3 16 1 24 -4 21 -6 -3 -10 43 -9 116 0 117 1 125 33 189 32 66 71 105
134 134 43 19 142 12 168 -11z M2530 4110 c-5 -10 -10 -27 -9 -37 0 -10 5 -4
10 14 7 22 14 31 24 27 8 -4 15 -4 15 -1 0 16 -31 14 -40 -3z M2626 4057 c3
-10 9 -15 12 -12 3 3 0 11 -7 18 -10 9 -11 8 -5 -6z M1886 3195 c4 -8 8 -15
10 -15 2 0 4 7 4 15 0 8 -4 15 -10 15 -5 0 -7 -7 -4 -15z M1825 3140 c-3 -5
-1 -10 4 -10 6 0 11 5 11 10 0 6 -2 10 -4 10 -3 0 -8 -4 -11 -10z M1710 3129
c0 -5 5 -7 10 -4 6 3 10 8 10 11 0 2 -4 4 -10 4 -5 0 -10 -5 -10 -11z M2376
3323 c-6 -14 -5 -15 5 -6 7 7 10 15 7 18 -3 3 -9 -2 -12 -12z M945 3210 c5 -9
2 -10 -13 -6 -31 10 -64 -37 -60 -88 3 -38 7 -43 73 -83 65 -40 103 -55 91
-34 -3 5 0 11 8 14 18 7 28 92 16 138 -12 43 -26 54 -84 64 -30 6 -37 5 -31
-5z M548 2613 c-14 -16 -31 -46 -37 -68 -14 -50 -15 -168 -2 -160 6 3 8 -3 6
-14 -3 -15 6 -20 52 -30 94 -18 110 -16 117 20 14 73 -2 178 -25 163 -5 -3 -6
2 -3 10 3 9 2 16 -2 16 -5 0 -10 12 -10 26 -2 30 -30 64 -54 64 -9 0 -28 -12
-42 -27z M3027 4203 c-12 -11 -8 -19 28 -59 20 -21 39 -50 42 -63 3 -14 16
-40 29 -58 13 -20 26 -58 30 -91 8 -64 18 -75 120 -132 138 -77 162 -93 168
-114 12 -45 6 -69 -28 -101 l-35 -33 23 -21 c12 -11 28 -21 35 -21 7 0 26 -9
42 -20 32 -23 127 -47 151 -37 24 9 110 196 127 274 8 39 7 43 -23 71 -77 72
-294 230 -326 237 -19 4 -41 11 -50 16 -33 17 -228 98 -278 115 -34 12 -51 23
-48 31 6 14 3 17 -7 6z M3020 4115 c13 -14 26 -25 28 -25 3 0 -5 11 -18 25
-13 14 -26 25 -28 25 -3 0 5 -11 18 -25z M2864 4058 l-19 -23 23 19 c12 11 22
21 22 23 0 8 -8 2 -26 -19z M3040 4060 c-9 -6 -10 -10 -3 -10 6 0 15 5 18 10
8 12 4 12 -15 0z M3048 4023 c7 -3 16 -2 19 1 4 3 -2 6 -13 5 -11 0 -14 -3 -6
-6z M2884 3994 c-18 -14 -18 -15 4 -4 12 6 22 13 22 15 0 8 -5 6 -26 -11z
M3091 3993 c7 -12 15 -20 18 -17 3 2 -3 12 -13 22 -17 16 -18 16 -5 -5z M2804
3938 l-19 -23 23 19 c21 18 27 26 19 26 -2 0 -12 -10 -23 -22z M3111 3944 c0
-11 3 -14 6 -6 3 7 2 16 -1 19 -3 4 -6 -2 -5 -13z M2743 3893 c0 -9 4 -10 14
-2 7 6 13 12 13 14 0 1 -6 2 -13 2 -8 0 -14 -6 -14 -14z M2794 3888 l-19 -23
23 19 c12 11 22 21 22 23 0 8 -8 2 -26 -19z M3116 3838 c3 -5 10 -6 15 -3 13
9 11 12 -6 12 -8 0 -12 -4 -9 -9z M3150 3826 c0 -2 8 -10 18 -17 15 -13 16
-12 3 4 -13 16 -21 21 -21 13z M3766 3817 c3 -10 9 -15 12 -12 3 3 0 11 -7 18
-10 9 -11 8 -5 -6z M3897 3811 c-4 -17 -3 -21 5 -13 5 5 8 16 6 23 -3 8 -7 3
-11 -10z M4060 3826 c0 -2 8 -10 18 -17 15 -13 16 -12 3 4 -13 16 -21 21 -21
13z M3952 3800 c0 -14 2 -19 5 -12 2 6 2 18 0 25 -3 6 -5 1 -5 -13z M3125
3789 c-4 -6 -5 -11 -4 -12 2 -2 13 -9 24 -17 19 -14 19 -14 2 6 -9 11 -14 24
-10 27 3 4 4 7 0 7 -3 0 -9 -5 -12 -11z M3004 3779 c-2 -4 6 -15 19 -25 18
-16 19 -16 8 -1 -12 15 -10 17 18 17 17 0 31 3 31 8 0 8 -70 10 -76 1z M2870
3756 c0 -2 8 -10 18 -17 15 -13 16 -12 3 4 -13 16 -21 21 -21 13z M3075 3733
c11 -3 27 -10 35 -17 13 -10 13 -9 1 7 -7 9 -23 16 -35 16 -20 -1 -20 -2 -1
-6z M4024 3733 c3 -3 -5 -15 -18 -27 -12 -11 -14 -15 -5 -8 9 7 30 17 45 21
l29 8 -28 5 c-15 3 -26 3 -23 1z M2671 3714 c0 -11 3 -14 6 -6 3 7 2 16 -1 19
-3 4 -6 -2 -5 -13z M3162 3705 c0 -16 2 -22 5 -12 2 9 2 23 0 30 -3 6 -5 -1
-5 -18z M3800 3661 c-32 -64 -82 -192 -77 -197 2 -3 53 46 96 93 11 12 16 23
12 25 -5 2 -11 13 -15 24 -5 16 0 25 18 38 25 16 44 7 30 -16 -5 -7 -3 -8 5
-3 7 4 11 18 9 30 -3 16 -1 22 8 18 6 -2 15 1 20 8 5 8 3 10 -5 4 -8 -4 -25 1
-42 14 l-29 21 -30 -59z M3354 3688 c-5 -7 -3 -8 5 -4 15 10 51 -21 52 -43 0
-11 2 -12 6 -3 5 13 -33 62 -48 62 -4 0 -11 -5 -15 -12z M3131 3656 c-9 -11
-9 -16 1 -22 7 -4 10 -4 6 1 -4 4 -3 14 3 22 6 7 9 13 6 13 -2 0 -10 -6 -16
-14z M3319 3653 c-13 -16 -12 -17 4 -4 16 13 21 21 13 21 -2 0 -10 -8 -17 -17z
M2651 3644 c0 -11 3 -14 6 -6 3 7 2 16 -1 19 -3 4 -6 -2 -5 -13z M3989 3623
c-13 -16 -12 -17 4 -4 16 13 21 21 13 21 -2 0 -10 -8 -17 -17z M3909 3593
c-13 -16 -12 -17 4 -4 16 13 21 21 13 21 -2 0 -10 -8 -17 -17z M4180 3606 c0
-2 7 -7 16 -10 8 -3 12 -2 9 4 -6 10 -25 14 -25 6z M3310 3591 c0 -5 10 -7 22
-3 16 4 19 2 13 -8 -5 -9 -4 -11 4 -6 6 4 9 12 6 17 -8 12 -45 12 -45 0z
M4152 3580 c0 -14 2 -19 5 -12 2 6 2 18 0 25 -3 6 -5 1 -5 -13z M3949 3573
c-13 -16 -12 -17 4 -4 9 7 17 15 17 17 0 8 -8 3 -21 -13z M4039 3573 c-13 -16
-12 -17 4 -4 9 7 17 15 17 17 0 8 -8 3 -21 -13z M2764 3564 c-18 -14 -18 -14
6 -3 31 14 36 19 24 19 -6 0 -19 -7 -30 -16z M2826 3567 c3 -10 9 -15 12 -12
3 3 0 11 -7 18 -10 9 -11 8 -5 -6z M3138 3573 c6 -2 18 -2 25 0 6 3 1 5 -13 5
-14 0 -19 -2 -12 -5z M4226 3567 c3 -10 9 -15 12 -12 3 3 0 11 -7 18 -10 9
-11 8 -5 -6z M3028 3563 c12 -2 32 -2 45 0 12 2 2 4 -23 4 -25 0 -35 -2 -22
-4z M3843 3503 c-24 -31 -43 -62 -43 -69 0 -19 27 -18 38 2 5 8 28 36 53 61
24 26 37 43 29 38 -28 -17 -41 -14 -35 6 9 28 4 24 -42 -38z M2796 3537 c3
-10 9 -15 12 -12 3 3 0 11 -7 18 -10 9 -11 8 -5 -6z M3208 3543 c7 -3 16 -2
19 1 4 3 -2 6 -13 5 -11 0 -14 -3 -6 -6z M2765 3529 c-4 -6 -5 -12 -2 -15 2
-3 7 2 10 11 7 17 1 20 -8 4z M3258 3533 c7 -3 16 -2 19 1 4 3 -2 6 -13 5 -11
0 -14 -3 -6 -6z M2856 3515 c-3 -9 -6 -22 -5 -28 0 -7 5 -1 10 12 5 13 8 26 5
28 -2 2 -6 -3 -10 -12z M4084 3498 l-19 -23 23 19 c12 11 22 21 22 23 0 8 -8
2 -26 -19z M2692 3494 c9 -9 21 -15 27 -13 6 2 -2 10 -17 17 -25 11 -25 11
-10 -4z M2886 3502 c-3 -5 1 -9 9 -9 8 0 12 4 9 9 -3 4 -7 8 -9 8 -2 0 -6 -4
-9 -8z M3009 3473 c-12 -16 -12 -17 1 -7 8 6 22 14 30 17 13 5 12 6 -1 6 -9 1
-23 -7 -30 -16z M3245 3481 c-3 -5 -2 -12 3 -15 5 -3 9 1 9 9 0 17 -3 19 -12
6z M2790 3455 c-20 -21 -21 -27 -10 -38 10 -10 11 -9 5 1 -4 8 2 23 16 38 12
13 20 24 17 24 -2 0 -15 -11 -28 -25z M3348 3457 c-103 -130 -120 -148 -141
-142 -16 5 -18 4 -8 -3 11 -8 11 -10 0 -15 -10 -4 -10 -6 -2 -6 9 -1 10 -8 3
-27 -6 -14 -10 -45 -10 -70 0 -37 -3 -44 -20 -44 -13 0 -20 -7 -20 -20 0 -24
20 -70 31 -70 10 0 93 87 126 133 66 89 107 121 216 166 41 17 47 23 38 38 -7
15 -164 83 -189 83 -4 0 -15 -10 -24 -23z M3916 3449 c-32 -35 -28 -60 9 -57
30 3 30 6 8 30 -15 17 -15 19 2 38 10 11 16 20 13 20 -2 0 -17 -14 -32 -31z
M4039 3463 c-13 -16 -12 -17 4 -4 9 7 17 15 17 17 0 8 -8 3 -21 -13z M3017
3453 c-11 -11 -8 -81 4 -89 6 -3 16 -1 22 5 9 9 8 11 -7 5 -16 -6 -18 -2 -15
39 2 26 4 47 3 47 0 0 -4 -3 -7 -7z M2851 3434 c0 -11 3 -14 6 -6 3 7 2 16 -1
19 -3 4 -6 -2 -5 -13z M4110 3440 c-8 -5 -10 -10 -5 -10 6 0 17 5 25 10 8 5
11 10 5 10 -5 0 -17 -5 -25 -10z M3144 3416 c-8 -22 3 -33 18 -18 9 9 9 15 0
24 -9 9 -13 7 -18 -6z M2894 3399 c-3 -6 -2 -15 3 -20 5 -5 9 -1 9 11 0 23 -2
24 -12 9z M4024 3394 c-18 -14 -18 -15 4 -4 12 6 22 13 22 15 0 8 -5 6 -26
-11z M3979 3363 c-13 -16 -12 -17 4 -4 16 13 21 21 13 21 -2 0 -10 -8 -17 -17z
M3693 3363 c15 -2 39 -2 55 0 15 2 2 4 -28 4 -30 0 -43 -2 -27 -4z M3110 3350
c-9 -6 -10 -10 -3 -10 6 0 15 5 18 10 8 12 4 12 -15 0z M2978 3333 c7 -3 16
-2 19 1 4 3 -2 6 -13 5 -11 0 -14 -3 -6 -6z M3959 3328 c-3 -43 5 -86 22 -109
10 -15 19 -34 19 -42 0 -8 10 -21 21 -29 12 -7 23 -26 24 -42 2 -15 6 -31 10
-34 4 -4 6 0 4 8 -1 8 1 22 5 32 9 19 -29 114 -55 140 -9 9 -20 31 -24 47 -7
32 -24 51 -26 29z M2890 3295 c0 -8 2 -15 4 -15 2 0 6 7 10 15 3 8 1 15 -4 15
-6 0 -10 -7 -10 -15z M3159 3283 c-13 -16 -12 -17 4 -4 9 7 17 15 17 17 0 8
-8 3 -21 -13z M3429 3263 l-34 -38 38 34 c20 19 37 36 37 38 0 8 -8 0 -41 -34z
M3116 3235 c-11 -8 -15 -15 -9 -15 6 0 16 7 23 15 16 19 11 19 -14 0z M3902
3230 c0 -14 2 -19 5 -12 2 6 2 18 0 25 -3 6 -5 1 -5 -13z M3364 3188 l-19 -23
23 19 c21 18 27 26 19 26 -2 0 -12 -10 -23 -22z M2957 3175 c-4 -8 -3 -16 1
-19 4 -3 9 4 9 15 2 23 -3 25 -10 4z M3044 3138 l-19 -23 25 20 c14 11 27 21
29 22 2 2 0 3 -6 3 -5 0 -18 -10 -29 -22z M3918 3143 c7 -3 16 -2 19 1 4 3 -2
6 -13 5 -11 0 -14 -3 -6 -6z M3309 3113 c-13 -16 -12 -17 4 -4 16 13 21 21 13
21 -2 0 -10 -8 -17 -17z M3898 3113 c7 -3 16 -2 19 1 4 3 -2 6 -13 5 -11 0
-14 -3 -6 -6z M3269 3083 c-13 -16 -12 -17 4 -4 16 13 21 21 13 21 -2 0 -10
-8 -17 -17z M3010 3066 c0 -2 8 -10 18 -17 15 -13 16 -12 3 4 -13 16 -21 21
-21 13z M3993 3063 c9 -2 25 -2 35 0 9 3 1 5 -18 5 -19 0 -27 -2 -17 -5z
M4008 3033 c7 -3 16 -2 19 1 4 3 -2 6 -13 5 -11 0 -14 -3 -6 -6z M4060 3036
c0 -2 8 -10 18 -17 15 -13 16 -12 3 4 -13 16 -21 21 -21 13z M3670 3009 c-22
-18 -22 -19 -3 -10 12 6 25 16 28 21 9 15 3 12 -25 -11z M3948 3023 c7 -3 16
-2 19 1 4 3 -2 6 -13 5 -11 0 -14 -3 -6 -6z M3599 2993 l-24 -28 28 24 c25 23
32 31 24 31 -2 0 -14 -12 -28 -27z M3828 2943 c7 -3 16 -2 19 1 4 3 -2 6 -13
5 -11 0 -14 -3 -6 -6z M3898 2943 c12 -2 30 -2 40 0 9 3 -1 5 -23 4 -22 0 -30
-2 -17 -4z M3458 2933 c7 -3 16 -2 19 1 4 3 -2 6 -13 5 -11 0 -14 -3 -6 -6z
M3768 2933 c6 -2 18 -2 25 0 6 3 1 5 -13 5 -14 0 -19 -2 -12 -5z M4020 2914
c-14 -7 -47 -14 -73 -14 -65 0 -95 -31 -125 -126 -18 -58 -34 -84 -80 -135
-31 -34 -57 -67 -57 -73 0 -6 21 -12 47 -14 36 -2 48 -8 53 -22 3 -10 15 -22
26 -25 10 -4 19 -12 19 -18 0 -7 14 -24 30 -39 17 -14 30 -30 30 -36 0 -5 -15
-29 -34 -53 -31 -41 -36 -44 -87 -47 -41 -2 -64 -10 -94 -32 -22 -16 -39 -33
-38 -39 4 -18 -56 -69 -99 -84 -24 -8 -72 -20 -108 -27 -84 -15 -104 -32 -58
-49 98 -37 132 -57 156 -94 26 -38 26 -39 8 -72 -10 -19 -26 -42 -35 -52 -26
-29 -81 -115 -81 -128 0 -7 7 -26 15 -43 33 -65 -7 -180 -68 -195 -32 -9 -48
-42 -105 -213 -57 -170 -74 -252 -71 -330 2 -30 0 -57 -4 -61 -4 -3 -7 -11 -7
-16 0 -5 8 0 18 11 9 10 57 53 107 93 142 116 298 259 353 322 23 26 42 35 42
20 0 -5 -18 -31 -39 -60 -22 -28 -37 -54 -34 -56 2 -3 -5 -11 -17 -17 -12 -6
-19 -14 -16 -17 8 -8 46 27 46 43 0 7 5 16 12 20 6 4 8 3 4 -4 -3 -6 -1 -14 5
-17 18 -12 80 56 73 78 -4 14 -3 17 6 12 9 -5 10 -1 5 14 -8 26 29 87 57 95
10 2 16 0 12 -5 -12 -20 9 -7 28 16 11 14 28 25 39 25 11 0 17 5 14 10 -4 6
-11 8 -16 5 -13 -9 3 29 50 114 23 41 39 76 36 79 -2 3 1 10 9 16 16 13 38
119 30 141 -4 8 -2 15 4 15 5 0 12 30 15 67 4 52 10 71 26 84 17 14 21 28 21
72 0 31 3 62 6 71 7 19 34 21 34 4 1 -31 19 23 23 68 5 54 15 85 31 96 7 5 7
8 1 8 -6 0 -10 40 -11 98 0 74 -7 121 -29 202 -16 58 -32 107 -37 108 -4 2 -6
7 -3 11 5 10 -22 127 -37 158 -6 12 -8 29 -5 37 4 9 5 16 4 15 -1 -1 -13 -7
-27 -15z M3803 2903 c9 -2 23 -2 30 0 6 3 -1 5 -18 5 -16 0 -22 -2 -12 -5z
M3581 2874 c0 -11 3 -14 6 -6 3 7 2 16 -1 19 -3 4 -6 -2 -5 -13z M3392 2850
c0 -14 2 -19 5 -12 2 6 2 18 0 25 -3 6 -5 1 -5 -13z M3423 2825 c0 -27 2 -38
4 -22 2 15 2 37 0 50 -2 12 -4 0 -4 -28z M2620 2852 c0 -5 7 -9 15 -9 8 0 12
4 9 9 -3 4 -9 8 -15 8 -5 0 -9 -4 -9 -8z M2680 2795 c13 -14 26 -25 28 -25 3
0 -5 11 -18 25 -13 14 -26 25 -28 25 -3 0 5 -11 18 -25z M3401 2774 c0 -11 3
-14 6 -6 3 7 2 16 -1 19 -3 4 -6 -2 -5 -13z M2751 2724 c13 -17 26 -30 28 -27
3 2 -8 16 -24 31 l-28 27 24 -31z M3389 2703 c-13 -16 -12 -17 4 -4 16 13 21
21 13 21 -2 0 -10 -8 -17 -17z M2803 2653 c-4 -10 -20 -40 -36 -68 -58 -98
-67 -115 -57 -115 5 0 21 -24 35 -54 19 -40 39 -63 83 -93 47 -33 153 -93 164
-93 2 0 4 33 4 73 1 39 5 87 9 105 6 26 3 40 -12 60 -31 43 -46 74 -52 111 -3
19 -13 37 -21 41 -8 4 -34 17 -56 29 -50 25 -53 26 -61 4z M2730 2620 c-6 -11
-8 -20 -6 -20 3 0 10 9 16 20 6 11 8 20 6 20 -3 0 -10 -9 -16 -20z M3148 2613
c7 -3 16 -2 19 1 4 3 -2 6 -13 5 -11 0 -14 -3 -6 -6z M3655 2609 c-4 -6 -5
-12 -2 -15 2 -3 7 2 10 11 7 17 1 20 -8 4z M3025 2599 c7 -11 52 -12 58 -1 3
4 -10 8 -29 9 -19 1 -32 -3 -29 -8z M3735 2530 c-3 -6 1 -7 9 -4 18 7 21 14 7
14 -6 0 -13 -4 -16 -10z M2340 2513 c0 -10 4 -14 8 -8 4 6 11 13 16 18 5 4 2
7 -7 7 -10 0 -17 -8 -17 -17z M2671 2514 c0 -11 3 -14 6 -6 3 7 2 16 -1 19 -3
4 -6 -2 -5 -13z M2216 2485 c-11 -8 -15 -15 -9 -15 6 0 16 7 23 15 16 19 11
19 -14 0z M3765 2461 c-6 -11 9 -23 19 -14 9 9 7 23 -3 23 -6 0 -12 -4 -16 -9z
M2151 2443 c7 -12 15 -20 18 -17 3 2 -3 12 -13 22 -17 16 -18 16 -5 -5z M3696
2448 c3 -5 10 -6 15 -3 13 9 11 12 -6 12 -8 0 -12 -4 -9 -9z M3651 2434 c0
-11 3 -14 6 -6 3 7 2 16 -1 19 -3 4 -6 -2 -5 -13z M2692 2395 c-1 -28 -6 -56
-12 -63 -5 -7 -3 -6 6 1 11 10 14 27 11 63 l-3 49 -2 -50z M3815 2420 c-3 -6
1 -7 9 -4 18 7 21 14 7 14 -6 0 -13 -4 -16 -10z M2295 2380 c21 -22 41 -40 44
-40 3 0 -13 18 -34 40 -21 22 -41 40 -44 40 -3 0 13 -18 34 -40z M2400 2416
c0 -2 8 -10 18 -17 15 -13 16 -12 3 4 -13 16 -21 21 -21 13z M2139 2393 c-13
-16 -12 -17 4 -4 9 7 17 15 17 17 0 8 -8 3 -21 -13z M3658 2393 c7 -3 16 -2
19 1 4 3 -2 6 -13 5 -11 0 -14 -3 -6 -6z M3700 2350 c0 -5 5 -10 10 -10 6 0
10 5 10 10 0 6 -4 10 -10 10 -5 0 -10 -4 -10 -10z M1996 2335 c-11 -8 -17 -17
-14 -20 2 -3 13 4 23 15 21 23 18 25 -9 5z M2061 2307 c-13 -21 -12 -21 5 -5
10 10 16 20 13 22 -3 3 -11 -5 -18 -17z M2195 2300 c10 -11 20 -20 23 -20 3 0
-3 9 -13 20 -10 11 -20 20 -23 20 -3 0 3 -9 13 -20z M1939 2283 c-13 -16 -12
-17 4 -4 9 7 17 15 17 17 0 8 -8 3 -21 -13z M2070 2285 c-19 -23 -8 -25 14 -4
11 11 15 19 9 19 -6 0 -16 -7 -23 -15z M2480 2296 c0 -2 8 -10 18 -17 15 -13
16 -12 3 4 -13 16 -21 21 -21 13z M2762 2280 c0 -14 2 -19 5 -12 2 6 2 18 0
25 -3 6 -5 1 -5 -13z M3599 2283 c-13 -16 -12 -17 4 -4 9 7 17 15 17 17 0 8
-8 3 -21 -13z M1900 2243 c5 -2 8 -8 5 -13 -3 -4 3 -14 13 -21 16 -13 16 -13
2 5 -8 11 -14 22 -12 25 2 3 -1 6 -7 8 -7 1 -8 0 -1 -4z M1999 2233 c-13 -16
-12 -17 4 -4 9 7 17 15 17 17 0 8 -8 3 -21 -13z M2034 2228 l-19 -23 23 19
c21 18 27 26 19 26 -2 0 -12 -10 -23 -22z M2341 2237 c2 -1 15 -11 29 -22 l25
-20 -19 23 c-11 12 -24 22 -29 22 -6 0 -8 -1 -6 -3z M1930 2226 c0 -2 8 -10
18 -17 15 -13 16 -12 3 4 -13 16 -21 21 -21 13z M2756 2217 c3 -10 9 -15 12
-12 3 3 0 11 -7 18 -10 9 -11 8 -5 -6z M2684 2198 l-19 -23 23 19 c12 11 22
21 22 23 0 8 -8 2 -26 -19z M1860 2206 c0 -2 7 -7 16 -10 8 -3 12 -2 9 4 -6
10 -25 14 -25 6z M2510 2199 c0 -5 5 -7 10 -4 6 3 10 8 10 11 0 2 -4 4 -10 4
-5 0 -10 -5 -10 -11z M2890 2186 c0 -2 8 -10 18 -17 15 -13 16 -12 3 4 -13 16
-21 21 -21 13z M1814 2158 l-19 -23 23 19 c21 18 27 26 19 26 -2 0 -12 -10
-23 -22z M2770 2176 c0 -2 8 -10 18 -17 15 -13 16 -12 3 4 -13 16 -21 21 -21
13z M2885 2140 c10 -11 20 -20 23 -20 3 0 -3 9 -13 20 -10 11 -20 20 -23 20
-3 0 3 -9 13 -20z M3037 2153 c-10 -9 -9 -23 1 -23 5 0 9 7 9 15 0 17 -1 18
-10 8z M2016 2142 c-3 -5 1 -15 8 -21 11 -10 14 -9 12 3 -3 21 -13 29 -20 18z
M2080 2125 c13 -14 26 -25 28 -25 3 0 -5 11 -18 25 -13 14 -26 25 -28 25 -3 0
5 -11 18 -25z M2340 2146 c0 -2 8 -10 18 -17 15 -13 16 -12 3 4 -13 16 -21 21
-21 13z M2506 2142 c-3 -5 1 -9 9 -9 8 0 12 4 9 9 -3 4 -7 8 -9 8 -2 0 -6 -4
-9 -8z M3147 2139 c7 -7 15 -10 18 -7 3 3 -2 9 -12 12 -14 6 -15 5 -6 -5z
M3288 2143 c6 -2 18 -2 25 0 6 3 1 5 -13 5 -14 0 -19 -2 -12 -5z M1889 2113
l-24 -28 28 24 c25 23 32 31 24 31 -2 0 -14 -12 -28 -27z M2172 2115 c-12 -14
-18 -25 -14 -25 5 0 19 11 32 25 13 14 19 25 14 25 -6 0 -20 -11 -32 -25z
M2285 2120 c10 -11 20 -20 23 -20 3 0 -3 9 -13 20 -10 11 -20 20 -23 20 -3 0
3 -9 13 -20z M2433 2125 c0 -8 4 -12 9 -9 4 3 8 9 8 15 0 5 -4 9 -8 9 -5 0 -9
-7 -9 -15z M2820 2137 c0 -2 15 -16 33 -33 l32 -29 -29 33 c-28 30 -36 37 -36
29z M3090 2136 c0 -2 8 -10 18 -17 15 -13 16 -12 3 4 -13 16 -21 21 -21 13z
M2199 2093 l-34 -38 38 34 c34 33 42 41 34 41 -2 0 -19 -17 -38 -37z M2405
2111 c-3 -5 -2 -12 3 -15 5 -3 9 1 9 9 0 17 -3 19 -12 6z M3060 2106 c0 -8 4
-17 9 -20 5 -4 7 3 4 14 -6 23 -13 26 -13 6z M2605 2100 c-3 -5 -1 -10 4 -10
6 0 11 5 11 10 0 6 -2 10 -4 10 -3 0 -8 -4 -11 -10z M4121 2093 c0 -6 -4 -20
-7 -30 -5 -14 -4 -15 5 -7 7 7 11 20 8 30 -3 11 -5 14 -6 7z M2046 2068 c10
-14 21 -24 23 -22 3 3 -6 15 -18 27 l-24 22 19 -27z M2085 2080 c-3 -5 -1 -10
4 -10 6 0 11 5 11 10 0 6 -2 10 -4 10 -3 0 -8 -4 -11 -10z M2927 2079 c7 -7
15 -10 18 -7 3 3 -2 9 -12 12 -14 6 -15 5 -6 -5z M1762 2055 c0 -16 2 -22 5
-12 2 9 2 23 0 30 -3 6 -5 -1 -5 -18z M1844 2058 l-19 -23 23 19 c21 18 27 26
19 26 -2 0 -12 -10 -23 -22z M3169 2063 c-12 -16 -12 -17 1 -7 8 6 22 14 30
17 13 5 12 6 -1 6 -9 1 -23 -7 -30 -16z M3045 2060 c3 -5 8 -10 11 -10 2 0 4
5 4 10 0 6 -5 10 -11 10 -5 0 -7 -4 -4 -10z M3228 2063 c7 -3 16 -2 19 1 4 3
-2 6 -13 5 -11 0 -14 -3 -6 -6z M1880 2049 c0 -5 5 -7 10 -4 6 3 10 8 10 11 0
2 -4 4 -10 4 -5 0 -10 -5 -10 -11z M2974 2038 l-19 -23 23 19 c12 11 22 21 22
23 0 8 -8 2 -26 -19z M2195 2020 c10 -11 20 -20 23 -20 3 0 -3 9 -13 20 -10
11 -20 20 -23 20 -3 0 3 -9 13 -20z M2279 2023 c-13 -16 -12 -17 4 -4 9 7 17
15 17 17 0 8 -8 3 -21 -13z M2505 2029 c-4 -6 -5 -12 -2 -15 2 -3 7 2 10 11 7
17 1 20 -8 4z M2568 2033 c7 -3 16 -2 19 1 4 3 -2 6 -13 5 -11 0 -14 -3 -6 -6z
M3104 2008 l-29 -33 33 29 c30 28 37 36 29 36 -2 0 -16 -15 -33 -32z M1841
2016 c-10 -11 -9 -14 1 -12 14 2 23 15 15 22 -2 2 -10 -2 -16 -10z M1889 2013
c-13 -16 -12 -17 4 -4 9 7 17 15 17 17 0 8 -8 3 -21 -13z M2311 2016 c-7 -8
-8 -17 -3 -20 6 -3 15 1 21 8 7 8 8 17 3 20 -6 3 -15 -1 -21 -8z M2410 2023
c5 -2 8 -9 5 -13 -3 -5 -1 -11 4 -14 5 -4 8 2 7 11 -2 9 -8 18 -15 19 -6 1 -7
0 -1 -3z M2026 1971 c-28 -28 -42 -49 -33 -47 21 3 68 46 62 57 -3 4 5 15 17
23 12 9 18 16 12 16 -5 0 -32 -22 -58 -49z m24 6 c0 -2 -12 -14 -27 -28 l-28
-24 24 28 c23 25 31 32 31 24z M2004 1988 l-19 -23 23 19 c21 18 27 26 19 26
-2 0 -12 -10 -23 -22z M2484 1983 c19 -23 37 -22 35 0 0 8 -2 8 -6 -1 -4 -10
-10 -9 -27 5 l-21 18 19 -22z M3480 1986 c0 -2 8 -10 18 -17 15 -13 16 -12 3
4 -13 16 -21 21 -21 13z M2059 1943 l-24 -28 28 24 c25 23 32 31 24 31 -2 0
-14 -12 -28 -27z M2150 1966 c0 -2 8 -10 18 -17 15 -13 16 -12 3 4 -13 16 -21
21 -21 13z M2260 1960 c0 -5 5 -10 11 -10 5 0 7 5 4 10 -3 6 -8 10 -11 10 -2
0 -4 -4 -4 -10z M2314 1948 l-19 -23 23 19 c21 18 27 26 19 26 -2 0 -12 -10
-23 -22z M2436 1939 c16 -20 31 -34 33 -32 3 2 -10 18 -29 36 l-34 32 30 -36z
M2463 1955 c0 -8 4 -12 9 -9 5 3 6 10 3 15 -9 13 -12 11 -12 -6z M2913 1925
c0 -27 2 -38 4 -22 2 15 2 37 0 50 -2 12 -4 0 -4 -28z M3010 1935 c-7 -9 -11
-17 -9 -20 3 -2 10 5 17 15 14 24 10 26 -8 5z M2330 1885 c19 -19 36 -35 39
-35 3 0 -10 16 -29 35 -19 19 -36 35 -39 35 -3 0 10 -16 29 -35z M3038 1903
c7 -3 16 -2 19 1 4 3 -2 6 -13 5 -11 0 -14 -3 -6 -6z M3103 1903 c9 -2 23 -2
30 0 6 3 -1 5 -18 5 -16 0 -22 -2 -12 -5z M2015 1889 c-4 -6 -5 -12 -2 -15 2
-3 7 2 10 11 7 17 1 20 -8 4z M2135 1838 l-60 -63 63 60 c58 55 67 65 59 65
-1 0 -29 -28 -62 -62z M2422 1860 c-18 -17 -29 -30 -24 -30 5 0 21 14 37 30
37 38 30 38 -13 0z M2533 1875 c0 -8 4 -12 9 -9 5 3 6 10 3 15 -9 13 -12 11
-12 -6z M2224 1858 l-19 -23 23 19 c21 18 27 26 19 26 -2 0 -12 -10 -23 -22z
M2470 1869 c0 -5 5 -7 10 -4 6 3 10 8 10 11 0 2 -4 4 -10 4 -5 0 -10 -5 -10
-11z M2314 1856 c4 -30 56 -73 56 -46 0 6 -6 9 -12 8 -7 -2 -12 3 -10 10 1 6
-3 11 -10 10 -7 -2 -12 2 -13 9 0 6 -3 14 -7 18 -3 4 -5 0 -4 -9z M2970 1855
c0 -9 6 -31 14 -50 16 -38 8 -50 -25 -40 -16 5 -29 -1 -52 -26 l-30 -34 -18
41 c-16 39 -40 60 -53 47 -3 -4 -6 -34 -6 -69 l0 -62 -40 5 c-27 4 -47 0 -65
-11 -28 -18 -27 -43 3 -101 22 -42 26 -83 9 -108 -17 -27 -30 -78 -20 -75 15
4 58 -15 81 -35 27 -25 28 -53 3 -109 -10 -24 -23 -56 -27 -72 -10 -31 -23
-42 -65 -50 -15 -3 -29 -12 -32 -20 -4 -10 -1 -13 9 -9 17 6 18 -25 4 -207 -9
-121 -3 -320 9 -290 8 19 26 22 146 24 55 1 106 6 113 10 7 4 17 4 24 0 7 -5
8 -3 3 7 -11 16 -14 34 -21 114 -6 57 -5 62 26 93 26 27 30 39 25 60 -20 76
-32 202 -25 257 11 87 18 111 62 203 l39 83 -20 43 c-12 23 -21 57 -21 74 0
50 37 118 90 165 34 30 50 54 55 78 10 54 -7 66 -107 73 -76 6 -88 5 -88 -9z
M2530 1835 c13 -14 26 -25 28 -25 3 0 -5 11 -18 25 -13 14 -26 25 -28 25 -3 0
5 -11 18 -25z M2786 1851 c-4 -5 3 -7 14 -4 23 6 26 13 6 13 -8 0 -17 -4 -20
-9z M3424 1838 l-19 -23 23 19 c21 18 27 26 19 26 -2 0 -12 -10 -23 -22z
M2144 1808 l-19 -23 23 19 c21 18 27 26 19 26 -2 0 -12 -10 -23 -22z M2174
1798 l-19 -23 23 19 c21 18 27 26 19 26 -2 0 -12 -10 -23 -22z M2315 1800 c10
-11 20 -20 23 -20 3 0 -3 9 -13 20 -10 11 -20 20 -23 20 -3 0 3 -9 13 -20z
M2420 1809 c0 -5 5 -7 10 -4 6 3 10 8 10 11 0 2 -4 4 -10 4 -5 0 -10 -5 -10
-11z M2596 1787 c3 -10 9 -15 12 -12 3 3 0 11 -7 18 -10 9 -11 8 -5 -6z M2672
1784 c10 -10 20 -16 22 -13 3 3 -5 11 -17 18 -21 13 -21 12 -5 -5z M3201 1784
c0 -11 3 -14 6 -6 3 7 2 16 -1 19 -3 4 -6 -2 -5 -13z M2071 1758 c-2 -25 15
-30 30 -10 13 15 12 16 -3 4 -14 -11 -17 -10 -21 5 -4 16 -5 16 -6 1z M2548
1763 c6 -2 18 -2 25 0 6 3 1 5 -13 5 -14 0 -19 -2 -12 -5z M2309 1733 l-24
-28 28 24 c25 23 32 31 24 31 -2 0 -14 -12 -28 -27z M2423 1735 c0 -8 4 -12 9
-9 4 3 8 9 8 15 0 5 -4 9 -8 9 -5 0 -9 -7 -9 -15z M2458 1743 c6 -2 18 -2 25
0 6 3 1 5 -13 5 -14 0 -19 -2 -12 -5z M2346 1732 c-3 -5 1 -9 9 -9 8 0 12 4 9
9 -3 4 -7 8 -9 8 -2 0 -6 -4 -9 -8z M2309 1693 c-13 -16 -12 -17 4 -4 9 7 17
15 17 17 0 8 -8 3 -21 -13z M1620 1629 c0 -5 5 -7 10 -4 6 3 10 8 10 11 0 2
-4 4 -10 4 -5 0 -10 -5 -10 -11z M1645 1621 c-3 -5 0 -13 6 -17 7 -4 9 -3 5 4
-3 5 0 13 6 15 9 4 10 6 1 6 -6 1 -14 -3 -18 -8z M1604 1564 c20 -14 20 -21 1
-27 -11 -4 -10 -4 2 -3 11 1 18 10 19 23 1 15 -4 21 -18 20 -17 -1 -17 -3 -4
-13z M1480 1560 c0 -5 7 -7 15 -4 8 4 15 8 15 10 0 2 -7 4 -15 4 -8 0 -15 -4
-15 -10z M1760 1560 c0 -5 5 -10 11 -10 5 0 7 5 4 10 -3 6 -8 10 -11 10 -2 0
-4 -4 -4 -10z M2640 1561 c0 -6 4 -13 10 -16 6 -3 7 1 4 9 -7 18 -14 21 -14 7z
M1773 1523 c9 -2 23 -2 30 0 6 3 -1 5 -18 5 -16 0 -22 -2 -12 -5z M1866 1488
c3 -5 10 -6 15 -3 13 9 11 12 -6 12 -8 0 -12 -4 -9 -9z M3283 1449 c-2 -23 3
-25 10 -4 4 8 3 16 -1 19 -4 3 -9 -4 -9 -15z M3208 1453 c7 -3 16 -2 19 1 4 3
-2 6 -13 5 -11 0 -14 -3 -6 -6z M1734 1418 l-19 -23 23 19 c21 18 27 26 19 26
-2 0 -12 -10 -23 -22z M3129 1423 c-13 -16 -12 -17 4 -4 16 13 21 21 13 21 -2
0 -10 -8 -17 -17z M2512 1385 c0 -16 2 -22 5 -12 2 9 2 23 0 30 -3 6 -5 -1 -5
-18z M1519 1363 l-34 -38 38 34 c34 33 42 41 34 41 -2 0 -19 -17 -38 -37z
M1712 1365 c0 -16 2 -22 5 -12 2 9 2 23 0 30 -3 6 -5 -1 -5 -18z M1969 1353
c-13 -16 -12 -17 4 -4 9 7 17 15 17 17 0 8 -8 3 -21 -13z M2610 1360 c-9 -6
-10 -10 -3 -10 6 0 15 5 18 10 8 12 4 12 -15 0z M1439 1293 l-24 -28 28 24
c25 23 32 31 24 31 -2 0 -14 -12 -28 -27z M1757 1289 c7 -7 15 -10 18 -7 3 3
-2 9 -12 12 -14 6 -15 5 -6 -5z M1951 1264 c0 -11 3 -14 6 -6 3 7 2 16 -1 19
-3 4 -6 -2 -5 -13z M1372 1229 c-19 -17 -32 -32 -30 -35 3 -2 20 12 38 31 42
43 37 45 -8 4z M1933 1185 c0 -44 2 -61 4 -37 2 23 2 59 0 80 -2 20 -4 1 -4
-43z M2014 1240 c9 -13 16 -40 16 -58 0 -30 -3 -34 -21 -29 -16 4 -19 3 -11
-5 6 -6 18 -8 26 -5 24 9 20 70 -5 98 l-21 24 16 -25z M1960 1186 c0 -2 7 -7
16 -10 8 -3 12 -2 9 4 -6 10 -25 14 -25 6z M3013 1060 c0 -47 2 -66 4 -42 2
23 2 61 0 85 -2 23 -4 4 -4 -43z M1720 1121 c0 -6 4 -13 10 -16 6 -3 7 1 4 9
-7 18 -14 21 -14 7z M1768 1112 c9 -10 19 -14 21 -9 2 5 -3 13 -10 18 -24 15
-30 10 -11 -9z M1848 1100 c-3 -20 1 -35 11 -43 12 -10 13 -9 6 3 -5 8 -8 27
-6 42 4 38 -6 36 -11 -2z M3161 1104 c0 -11 3 -14 6 -6 3 7 2 16 -1 19 -3 4
-6 -2 -5 -13z M1810 1100 c0 -5 5 -10 11 -10 5 0 7 5 4 10 -3 6 -8 10 -11 10
-2 0 -4 -4 -4 -10z M2483 1103 c9 -2 25 -2 35 0 9 3 1 5 -18 5 -19 0 -27 -2
-17 -5z M1928 1050 c2 -16 6 -30 8 -30 2 0 4 14 4 30 0 17 -4 30 -8 30 -5 0
-7 -13 -4 -30z M1498 1063 c7 -3 16 -2 19 1 4 3 -2 6 -13 5 -11 0 -14 -3 -6
-6z M1413 1053 c9 -2 23 -2 30 0 6 3 -1 5 -18 5 -16 0 -22 -2 -12 -5z M1600
1043 c0 -6 8 -17 18 -24 16 -13 16 -13 2 6 -8 11 -16 22 -17 24 -2 2 -3 0 -3
-6z M1485 1030 c-3 -5 -1 -10 4 -10 6 0 11 5 11 10 0 6 -2 10 -4 10 -3 0 -8
-4 -11 -10z M516 1021 c-3 -4 6 -6 19 -3 14 2 25 6 25 8 0 8 -39 4 -44 -5z
M1700 1020 c-13 -8 -12 -10 3 -10 9 0 17 5 17 10 0 12 -1 12 -20 0z M1755
1000 c-13 -6 -15 -9 -5 -9 8 0 22 4 30 9 18 12 2 12 -25 0z M548 993 c7 -3 16
-2 19 1 4 3 -2 6 -13 5 -11 0 -14 -3 -6 -6z M1259 983 c-13 -16 -12 -17 4 -4
9 7 17 15 17 17 0 8 -8 3 -21 -13z M1585 991 c-3 -5 -2 -12 3 -15 5 -3 9 1 9
9 0 17 -3 19 -12 6z M2451 984 c0 -11 3 -14 6 -6 3 7 2 16 -1 19 -3 4 -6 -2
-5 -13z M1034 974 c-18 -14 -18 -15 4 -4 12 6 22 13 22 15 0 8 -5 6 -26 -11z
M1476 981 c-4 -5 3 -7 14 -4 23 6 26 13 6 13 -8 0 -17 -4 -20 -9z M1701 974
c0 -11 3 -14 6 -6 3 7 2 16 -1 19 -3 4 -6 -2 -5 -13z M1616 963 c-6 -14 -5
-15 5 -6 7 7 10 15 7 18 -3 3 -9 -2 -12 -12z M1671 964 c0 -11 3 -14 6 -6 3 7
2 16 -1 19 -3 4 -6 -2 -5 -13z M2622 945 c0 -16 2 -22 5 -12 2 9 2 23 0 30 -3
6 -5 -1 -5 -18z M1921 944 c0 -11 3 -14 6 -6 3 7 2 16 -1 19 -3 4 -6 -2 -5
-13z M1716 938 c3 -4 11 -5 19 -1 21 7 19 12 -4 10 -11 0 -18 -5 -15 -9z M540
930 l-35 -7 32 -2 c17 0 35 4 38 9 3 6 5 9 3 9 -2 -1 -19 -5 -38 -9z M1449
903 c-13 -16 -12 -17 4 -4 16 13 21 21 13 21 -2 0 -10 -8 -17 -17z M1389 893
c-13 -16 -12 -17 4 -4 16 13 21 21 13 21 -2 0 -10 -8 -17 -17z M1800 900 c-12
-7 -10 -9 8 -7 12 0 22 5 22 9 0 11 -12 10 -30 -2z M518 893 c6 -2 18 -2 25 0
6 3 1 5 -13 5 -14 0 -19 -2 -12 -5z M568 893 c7 -3 16 -2 19 1 4 3 -2 6 -13 5
-11 0 -14 -3 -6 -6z M889 883 c-13 -16 -12 -17 4 -4 9 7 17 15 17 17 0 8 -8 3
-21 -13z M1535 880 c-4 -6 -11 -7 -17 -4 -7 4 -8 2 -4 -5 6 -9 11 -9 22 0 14
11 18 19 10 19 -3 0 -8 -5 -11 -10z M1772 874 c9 -9 21 -15 27 -13 6 2 -2 10
-17 17 -25 11 -25 11 -10 -4z M1903 874 c-15 -16 -17 -34 -4 -34 10 0 26 39
19 45 -1 2 -9 -3 -15 -11z M2442 870 c0 -14 2 -19 5 -12 2 6 2 18 0 25 -3 6
-5 1 -5 -13z M810 860 c-13 -8 -12 -10 3 -10 9 0 17 5 17 10 0 12 -1 12 -20 0z
M1534 838 l-29 -33 33 29 c30 28 37 36 29 36 -2 0 -16 -15 -33 -32z M1315 851
c-3 -5 -2 -12 3 -15 5 -3 9 1 9 9 0 17 -3 19 -12 6z M1820 851 c0 -6 4 -13 10
-16 6 -3 7 1 4 9 -7 18 -14 21 -14 7z M3131 844 c0 -11 3 -14 6 -6 3 7 2 16
-1 19 -3 4 -6 -2 -5 -13z M520 840 c-9 -6 -10 -10 -3 -10 6 0 15 5 18 10 8 12
4 12 -15 0z M1490 839 c0 -5 5 -7 10 -4 6 3 10 8 10 11 0 2 -4 4 -10 4 -5 0
-10 -5 -10 -11z M448 833 c7 -3 16 -2 19 1 4 3 -2 6 -13 5 -11 0 -14 -3 -6 -6z
M2612 815 c0 -16 2 -22 5 -12 2 9 2 23 0 30 -3 6 -5 -1 -5 -18z M3052 820 c0
-14 2 -19 5 -12 2 6 2 18 0 25 -3 6 -5 1 -5 -13z M3170 826 c0 -8 4 -17 9 -20
5 -4 7 3 4 14 -6 23 -13 26 -13 6z M1784 808 c-19 -23 -19 -23 2 -5 11 9 24
14 29 10 4 -5 5 -2 1 5 -9 16 -10 16 -32 -10z M2995 820 c-3 -6 1 -7 9 -4 18
7 21 14 7 14 -6 0 -13 -4 -16 -10z M593 803 c9 -2 25 -2 35 0 9 3 1 5 -18 5
-19 0 -27 -2 -17 -5z M1724 783 c11 -13 26 -23 35 -22 14 0 14 1 1 6 -8 3 -24
13 -35 22 -20 16 -20 16 -1 -6z M3032 770 c0 -14 2 -19 5 -12 2 6 2 18 0 25
-3 6 -5 1 -5 -13z M3067 778 c2 -5 10 -8 18 -8 8 0 16 3 18 8 3 4 -5 7 -18 7
-13 0 -21 -3 -18 -7z M558 773 c7 -3 16 -2 19 1 4 3 -2 6 -13 5 -11 0 -14 -3
-6 -6z M690 770 l-85 -6 85 -2 c47 -1 92 3 100 8 13 9 13 10 0 8 -8 -1 -53 -5
-100 -8z M2433 725 c0 -27 2 -38 4 -22 2 15 2 37 0 50 -2 12 -4 0 -4 -28z
M3300 766 c0 -2 8 -10 18 -17 15 -13 16 -12 3 4 -13 16 -21 21 -21 13z M3105
740 c-10 -11 -16 -22 -14 -24 2 -2 12 7 22 20 22 29 17 32 -8 4z M3179 733
c-13 -16 -12 -17 4 -4 9 7 17 15 17 17 0 8 -8 3 -21 -13z M618 733 c6 -2 18
-2 25 0 6 3 1 5 -13 5 -14 0 -19 -2 -12 -5z M831 724 c0 -11 3 -14 6 -6 3 7 2
16 -1 19 -3 4 -6 -2 -5 -13z M3040 736 c0 -2 8 -10 18 -17 15 -13 16 -12 3 4
-13 16 -21 21 -21 13z M713 723 c9 -2 23 -2 30 0 6 3 -1 5 -18 5 -16 0 -22 -2
-12 -5z M1020 726 c0 -2 7 -6 15 -10 8 -3 15 -1 15 4 0 6 -7 10 -15 10 -8 0
-15 -2 -15 -4z M1819 713 c-13 -16 -12 -17 4 -4 16 13 21 21 13 21 -2 0 -10
-8 -17 -17z M500 698 c0 -5 28 -7 63 -7 67 1 60 6 -15 11 -27 2 -48 0 -48 -4z
M708 703 c7 -3 16 -2 19 1 4 3 -2 6 -13 5 -11 0 -14 -3 -6 -6z M1178 703 c7
-3 16 -2 19 1 4 3 -2 6 -13 5 -11 0 -14 -3 -6 -6z M1258 703 c6 -2 18 -2 25 0
6 3 1 5 -13 5 -14 0 -19 -2 -12 -5z M3283 695 c0 -8 4 -12 9 -9 4 3 8 9 8 15
0 5 -4 9 -8 9 -5 0 -9 -7 -9 -15z M1068 693 c12 -2 32 -2 45 0 12 2 2 4 -23 4
-25 0 -35 -2 -22 -4z M2612 650 c0 -19 2 -27 5 -17 2 9 2 25 0 35 -3 9 -5 1
-5 -18z M538 663 c23 -2 59 -2 80 0 20 2 1 4 -43 4 -44 0 -61 -2 -37 -4z
M3309 643 l-24 -28 27 23 c24 22 27 22 31 5 4 -15 5 -14 6 5 1 29 -10 28 -40
-5z M3398 663 c6 -2 18 -2 25 0 6 3 1 5 -13 5 -14 0 -19 -2 -12 -5z M3530 666
c0 -2 8 -10 18 -17 15 -13 16 -12 3 4 -13 16 -21 21 -21 13z M1759 643 c-13
-16 -12 -17 4 -4 16 13 21 21 13 21 -2 0 -10 -8 -17 -17z M3167 639 c7 -7 15
-10 18 -7 3 3 -2 9 -12 12 -14 6 -15 5 -6 -5z M890 615 c13 -14 26 -25 28 -25
3 0 -5 11 -18 25 -13 14 -26 25 -28 25 -3 0 5 -11 18 -25z M3513 622 c10 -10
14 -22 10 -27 -5 -4 -2 -5 5 -1 11 6 10 12 -4 27 -9 10 -19 19 -22 19 -3 0 2
-8 11 -18z M1719 613 c-13 -16 -12 -17 4 -4 16 13 21 21 13 21 -2 0 -10 -8
-17 -17z M3257 619 c7 -7 15 -10 18 -7 3 3 -2 9 -12 12 -14 6 -15 5 -6 -5z
M3556 613 c-4 -9 -3 -20 1 -24 4 -4 9 3 9 17 2 28 -1 31 -10 7z M3018 593 c7
-3 16 -2 19 1 4 3 -2 6 -13 5 -11 0 -14 -3 -6 -6z M3140 590 c-18 -12 -2 -12
25 0 13 6 15 9 5 9 -8 0 -22 -4 -30 -9z M3068 583 c7 -3 16 -2 19 1 4 3 -2 6
-13 5 -11 0 -14 -3 -6 -6z M3190 586 c0 -2 8 -10 18 -17 15 -13 16 -12 3 4
-13 16 -21 21 -21 13z M3413 583 c15 -2 39 -2 55 0 15 2 2 4 -28 4 -30 0 -43
-2 -27 -4z M2621 554 c0 -11 3 -14 6 -6 3 7 2 16 -1 19 -3 4 -6 -2 -5 -13z
M3263 533 c15 -2 37 -2 50 0 12 2 0 4 -28 4 -27 0 -38 -2 -22 -4z M3418 533
c7 -3 16 -2 19 1 4 3 -2 6 -13 5 -11 0 -14 -3 -6 -6z M3468 533 c12 -2 30 -2
40 0 9 3 -1 5 -23 4 -22 0 -30 -2 -17 -4z M1605 521 c-11 -5 -33 -14 -49 -20
-34 -14 -25 -29 20 -34 16 -2 35 -6 40 -10 16 -9 146 -29 152 -22 3 3 0 5 -7
5 -7 0 -9 5 -6 10 3 6 1 10 -5 10 -7 0 -25 14 -40 30 -30 32 -73 45 -105 31z
M1118 483 c7 -3 16 -2 19 1 4 3 -2 6 -13 5 -11 0 -14 -3 -6 -6z M1278 483 c12
-2 30 -2 40 0 9 3 -1 5 -23 4 -22 0 -30 -2 -17 -4z M1498 483 c7 -3 16 -2 19
1 4 3 -2 6 -13 5 -11 0 -14 -3 -6 -6z M1458 473 c7 -3 16 -2 19 1 4 3 -2 6
-13 5 -11 0 -14 -3 -6 -6z M1218 463 c7 -3 16 -2 19 1 4 3 -2 6 -13 5 -11 0
-14 -3 -6 -6z M1378 463 c6 -2 18 -2 25 0 6 3 1 5 -13 5 -14 0 -19 -2 -12 -5z
M2520 466 c0 -2 8 -10 18 -17 15 -13 16 -12 3 4 -13 16 -21 21 -21 13z M2693
450 c2 -10 18 -15 48 -16 44 -1 44 -1 4 3 -22 3 -44 10 -48 16 -6 8 -7 7 -4
-3z M2409 413 c-13 -16 -12 -17 4 -4 16 13 21 21 13 21 -2 0 -10 -8 -17 -17z
M2445 409 c-4 -6 -5 -12 -2 -15 2 -3 7 2 10 11 7 17 1 20 -8 4z M2660 406 c0
-2 16 -6 35 -8 19 -2 35 0 35 4 0 4 -16 8 -35 8 -19 0 -35 -2 -35 -4z M1788
359 c5 -34 19 -46 35 -30 9 9 8 11 -5 6 -14 -6 -18 -2 -18 18 0 14 -4 28 -8
31 -5 3 -6 -8 -4 -25z M1272 360 c0 -14 2 -19 5 -12 2 6 2 18 0 25 -3 6 -5 1
-5 -13z M1820 372 c0 -5 7 -9 15 -9 8 0 12 4 9 9 -3 4 -9 8 -15 8 -5 0 -9 -4
-9 -8z M2537 369 c7 -7 15 -10 18 -7 3 3 -2 9 -12 12 -14 6 -15 5 -6 -5z
M2734 348 l-19 -23 23 19 c12 11 22 21 22 23 0 8 -8 2 -26 -19z M3091 343 c7
-12 15 -20 18 -17 3 2 -3 12 -13 22 -17 16 -18 16 -5 -5z M2568 343 c7 -3 16
-2 19 1 4 3 -2 6 -13 5 -11 0 -14 -3 -6 -6z M2823 328 c-2 -18 0 -20 7 -8 12
18 13 30 2 30 -4 0 -9 -10 -9 -22z M2430 326 c0 -8 4 -17 9 -20 5 -4 7 3 4 14
-6 23 -13 26 -13 6z M2607 329 c7 -7 15 -10 18 -7 3 3 -2 9 -12 12 -14 6 -15
5 -6 -5z M2761 314 c0 -11 3 -14 6 -6 3 7 2 16 -1 19 -3 4 -6 -2 -5 -13z
M2789 313 c-13 -16 -12 -17 4 -4 9 7 17 15 17 17 0 8 -8 3 -21 -13z M1257 291
c-4 -17 -3 -21 5 -13 5 5 8 16 6 23 -3 8 -7 3 -11 -10z M1291 294 c0 -11 3
-14 6 -6 3 7 2 16 -1 19 -3 4 -6 -2 -5 -13z M2468 303 c6 -2 18 -2 25 0 6 3 1
5 -13 5 -14 0 -19 -2 -12 -5z M2575 290 c10 -11 20 -20 23 -20 3 0 -3 9 -13
20 -10 11 -20 20 -23 20 -3 0 3 -9 13 -20z M2418 263 c12 -2 32 -2 45 0 12 2
2 4 -23 4 -25 0 -35 -2 -22 -4z M1143 253 c15 -2 37 -2 50 0 12 2 0 4 -28 4
-27 0 -38 -2 -22 -4z M2988 253 c7 -3 16 -2 19 1 4 3 -2 6 -13 5 -11 0 -14 -3
-6 -6z M2418 243 c12 -2 30 -2 40 0 9 3 -1 5 -23 4 -22 0 -30 -2 -17 -4z
M2928 243 c7 -3 16 -2 19 1 4 3 -2 6 -13 5 -11 0 -14 -3 -6 -6z M2788 233 c18
-2 45 -2 60 0 15 2 0 4 -33 4 -33 0 -45 -2 -27 -4z M3109 223 c-13 -16 -12
-17 4 -4 16 13 21 21 13 21 -2 0 -10 -8 -17 -17z M1498 223 c7 -3 16 -2 19 1
4 3 -2 6 -13 5 -11 0 -14 -3 -6 -6z M1175 209 c-16 -6 -14 -8 13 -8 33 -1 41
4 20 12 -7 2 -22 1 -33 -4z M1568 213 c6 -2 18 -2 25 0 6 3 1 5 -13 5 -14 0
-19 -2 -12 -5z M1658 203 c7 -3 16 -2 19 1 4 3 -2 6 -13 5 -11 0 -14 -3 -6 -6z
M2784 198 c-3 -4 19 -8 48 -7 57 1 55 5 -5 11 -21 2 -40 0 -43 -4z M2938 203
c7 -3 16 -2 19 1 4 3 -2 6 -13 5 -11 0 -14 -3 -6 -6z M1823 183 c9 -2 23 -2
30 0 6 3 -1 5 -18 5 -16 0 -22 -2 -12 -5z M2788 153 c6 -2 18 -2 25 0 6 3 1 5
-13 5 -14 0 -19 -2 -12 -5z M2848 153 c6 -2 18 -2 25 0 6 3 1 5 -13 5 -14 0
-19 -2 -12 -5z M2898 153 c6 -2 18 -2 25 0 6 3 1 5 -13 5 -14 0 -19 -2 -12 -5z
M1344 122 c5 -9 64 -7 73 2 4 3 -13 6 -36 6 -23 0 -40 -4 -37 -8z M1468 123
c6 -2 18 -2 25 0 6 3 1 5 -13 5 -14 0 -19 -2 -12 -5z M1833 113 c9 -2 23 -2
30 0 6 3 -1 5 -18 5 -16 0 -22 -2 -12 -5z M1677 103 c18 -2 50 -2 70 0 21 2 7
4 -32 4 -38 0 -55 -2 -38 -4z M1088 93 c7 -3 16 -2 19 1 4 3 -2 6 -13 5 -11 0
-14 -3 -6 -6z M1498 93 c12 -2 30 -2 40 0 9 3 -1 5 -23 4 -22 0 -30 -2 -17 -4z"/>
</g>
<g transform="translate(0.000000,447.000000) scale(0.100000,-0.100000)" fill="#000000">
<path d="M2958 4400 c-79 -50 -125 -125 -253 -414 -43 -99 -81 -168 -113 -207
-26 -33 -50 -59 -53 -59 -3 0 -21 -19 -39 -41 -29 -37 -35 -57 -31 -106 2 -24
48 -13 92 22 24 19 47 35 52 35 4 0 7 -17 7 -39 0 -43 16 -99 36 -122 8 -9 11
-19 7 -23 -5 -4 -3 -7 2 -6 25 5 40 -3 80 -45 l44 -45 -37 -30 c-20 -16 -68
-54 -105 -84 -84 -68 -176 -177 -248 -295 -22 -36 -64 -37 -184 -6 -138 36
-166 21 -105 -55 16 -20 27 -40 23 -44 -3 -3 -95 -6 -204 -6 -175 0 -206 -3
-263 -21 -64 -21 -75 -33 -76 -80 0 -31 74 -91 165 -134 75 -35 191 -69 313
-91 12 -3 22 -10 22 -16 0 -6 -63 -75 -141 -152 -167 -168 -161 -162 -193
-209 -31 -45 -40 -78 -32 -111 7 -30 78 -103 141 -145 51 -35 135 -116 135
-131 0 -28 91 -137 125 -150 31 -12 134 -3 197 17 26 8 52 12 56 9 5 -3 12
-28 14 -56 4 -36 15 -64 37 -95 43 -60 46 -95 7 -106 -36 -10 -76 -47 -76 -70
0 -10 -4 -21 -10 -24 -5 -3 -10 -27 -10 -53 0 -36 6 -52 27 -74 l27 -28 -12
-98 c-27 -218 -10 -360 59 -494 22 -42 25 -78 7 -78 -17 0 -58 -61 -58 -86 0
-11 6 -29 14 -40 10 -13 11 -23 4 -31 -8 -10 -1 -13 29 -13 21 0 48 -7 59 -15
17 -13 14 -14 -44 -15 -46 0 -63 -3 -60 -12 3 -7 17 -14 31 -16 15 -2 27 -8
27 -13 0 -6 31 -10 78 -9 46 1 101 -5 137 -15 47 -13 90 -16 200 -13 127 4
145 6 191 30 63 33 84 55 59 64 -13 5 -15 14 -11 35 4 21 -1 35 -17 53 -20 22
-32 26 -113 29 -69 4 -101 10 -135 28 -24 13 -66 26 -94 29 -48 5 -49 6 -62
49 -24 85 -34 240 -23 387 13 185 13 217 -2 212 -17 -6 -24 -48 -37 -211 -13
-150 -3 -308 25 -404 14 -51 16 -53 49 -53 40 0 41 -2 18 -41 -25 -42 -8 -48
30 -11 37 35 51 33 36 -5 -18 -49 -11 -59 21 -28 32 31 48 29 31 -3 -14 -26
-14 -52 -1 -52 5 0 16 13 24 29 12 22 24 30 58 35 24 3 59 9 80 12 28 5 40 2
57 -15 51 -51 19 -71 -147 -92 -74 -9 -109 -9 -165 1 -40 7 -78 15 -84 17 -18
7 -16 55 2 79 8 10 15 27 15 37 0 29 -24 14 -35 -21 -9 -33 -19 -40 -30 -22
-9 15 -45 12 -45 -4 0 -8 16 -28 36 -46 35 -30 35 -32 19 -50 -20 -22 -38 -17
-30 9 4 13 -6 23 -42 39 -27 12 -61 23 -78 24 -29 3 -30 5 -29 51 0 31 6 53
18 65 16 16 18 16 27 -1 14 -25 82 -57 99 -47 11 7 8 16 -16 45 -59 75 -85
122 -110 201 l-26 82 19 203 18 204 123 0 c118 0 125 1 143 24 10 13 19 32 19
43 0 10 9 36 20 58 26 51 25 82 -2 107 -23 20 -66 39 -81 35 -10 -3 3 48 20
75 17 25 13 66 -9 108 -30 58 -31 83 -3 101 18 11 38 15 65 11 l40 -5 0 62 c0
35 3 65 6 69 13 13 37 -8 53 -47 l18 -41 30 34 c23 25 36 31 52 26 33 -10 41
2 25 40 -27 65 -24 67 74 59 100 -7 117 -19 107 -73 -5 -24 -21 -48 -55 -78
-53 -47 -90 -115 -90 -165 0 -17 9 -51 21 -74 l20 -43 -39 -83 c-44 -92 -51
-116 -62 -203 -7 -55 5 -181 25 -257 5 -21 1 -33 -25 -60 -31 -31 -32 -36 -26
-93 8 -87 11 -104 22 -115 18 -18 161 -42 183 -31 30 17 41 14 73 -21 l29 -32
148 1 c164 0 205 10 177 42 -10 10 -14 25 -10 35 13 34 -54 75 -148 91 -21 3
-59 22 -85 42 -27 21 -69 41 -98 48 -49 11 -50 12 -47 45 1 19 5 42 8 50 4 8
6 38 5 66 -3 77 15 160 71 328 57 171 73 204 105 213 61 15 101 130 68 195 -8
17 -15 36 -15 43 0 13 55 99 81 128 9 10 25 33 35 52 18 33 18 34 -8 72 -24
37 -58 57 -156 94 -46 17 -26 34 58 49 36 7 84 19 108 27 43 15 103 66 99 84
-1 6 16 23 38 39 30 22 53 30 94 32 51 3 56 6 87 47 19 24 34 48 34 53 0 6
-13 22 -30 36 -16 15 -30 32 -30 39 0 6 -9 14 -19 18 -11 3 -23 15 -26 25 -5
14 -17 20 -53 22 -26 2 -47 8 -47 14 0 6 26 39 57 73 46 51 62 77 80 135 30
95 60 126 125 126 56 0 96 18 101 45 2 10 14 26 25 36 21 16 21 18 5 36 -15
17 -16 22 -4 39 11 16 12 23 2 37 -7 9 -15 14 -19 11 -3 -3 -8 4 -12 15 -3 12
-15 26 -26 31 -10 6 -19 18 -19 26 0 9 -9 28 -19 43 -26 36 -30 101 -8 134 24
36 177 111 230 112 36 1 42 4 45 24 5 34 -26 97 -54 110 -33 15 -34 15 -34
-14 0 -30 -25 -55 -128 -132 -123 -92 -187 -79 -95 18 102 110 154 150 183
142 16 -4 20 0 20 22 0 34 -50 85 -84 85 -39 0 -40 17 -1 30 23 8 35 18 35 30
0 37 -99 94 -130 75 -7 -4 -9 -19 -5 -35 8 -35 -49 -155 -69 -147 -9 4 -12 -1
-9 -13 5 -18 -19 -60 -60 -105 -40 -44 -92 -94 -94 -91 -6 5 44 130 91 227 31
64 54 99 66 102 47 12 12 65 -53 81 -52 13 -88 -18 -58 -49 12 -12 -11 -120
-40 -190 -44 -105 -82 -177 -97 -182 -24 -10 -119 14 -151 37 -16 11 -35 20
-42 20 -7 0 -23 10 -35 21 l-23 21 35 33 c34 32 40 56 28 101 -6 21 -30 37
-168 114 -102 57 -112 68 -120 132 -4 33 -17 71 -30 91 -13 18 -26 44 -29 58
-3 13 -22 42 -42 63 -36 40 -41 51 -26 60 18 12 81 135 81 158 0 33 -39 68
-76 68 -16 0 -50 -14 -76 -30z m69 -282 c40 -44 34 -57 -37 -82 -81 -29 -130
-57 -197 -114 -60 -50 -68 -40 -25 29 43 67 186 189 222 189 9 0 26 -10 37
-22z m61 -111 c12 -13 24 -36 26 -52 3 -17 8 -47 11 -68 7 -46 33 -71 113
-109 64 -30 76 -50 42 -68 -26 -14 -26 -46 1 -61 18 -9 26 -6 55 22 l34 33 26
-26 c19 -18 24 -31 19 -47 -7 -22 -34 -28 -51 -11 -14 14 -62 -4 -70 -25 -4
-8 -12 -15 -19 -15 -22 0 -75 34 -75 48 0 23 -29 24 -63 3 -38 -23 -115 -29
-135 -9 -9 9 -12 8 -16 -3 -2 -8 -9 -29 -15 -48 -15 -46 -3 -61 23 -29 18 22
31 26 99 31 62 4 77 3 77 -9 0 -8 3 -14 8 -15 104 -8 165 -29 160 -56 -5 -25
-35 -28 -43 -4 -8 25 -41 36 -61 20 -23 -19 -14 -72 14 -84 12 -5 22 -14 22
-19 0 -20 -35 -46 -62 -46 -26 0 -29 3 -27 28 4 49 0 62 -21 62 -20 0 -27 -16
-32 -75 -3 -26 -7 -30 -35 -33 -37 -4 -39 -1 -19 31 25 41 28 75 7 96 -24 24
-56 18 -78 -16 -12 -17 -14 -36 -9 -73 6 -44 4 -50 -11 -50 -35 0 -58 12 -76
36 -17 23 -18 27 -3 43 45 50 40 121 -9 121 -18 0 -26 -8 -34 -33 -7 -19 -9
-41 -5 -51 14 -37 -34 -59 -71 -32 -18 13 -17 15 18 57 40 46 45 65 24 93 -13
17 -16 17 -44 2 -20 -10 -36 -28 -43 -51 -16 -48 -39 -43 -67 15 -27 53 -29
92 -7 168 34 116 140 223 284 288 25 11 56 25 70 31 36 17 44 16 68 -10z m942
-308 c0 -36 -48 -104 -144 -206 -22 -23 -43 -49 -48 -57 -11 -20 -38 -21 -38
-2 0 7 16 34 36 61 28 36 39 44 46 34 7 -10 8 -9 4 5 -6 17 16 55 56 98 7 7
26 30 41 51 31 41 47 47 47 16z m-715 -19 c-20 -22 -31 -20 -22 5 4 8 14 15
23 15 16 0 16 -2 -1 -20z m39 -89 c3 -4 3 -11 0 -14 -8 -7 -44 4 -44 14 0 12
37 12 44 0z m-558 -85 c-9 -15 -21 -26 -26 -26 -17 0 -11 49 8 59 27 15 37 -4
18 -33z m112 -37 c-5 -35 -28 -36 -28 -1 0 16 3 32 7 36 11 11 25 -10 21 -35z
m362 11 c8 -5 11 -12 8 -16 -10 -9 -38 3 -38 16 0 12 10 13 30 0z m196 -32
c47 -18 90 -41 95 -51 9 -15 3 -21 -38 -38 -109 -45 -150 -77 -216 -166 -33
-46 -116 -133 -126 -133 -11 0 -31 46 -31 70 0 13 7 20 20 20 17 0 20 7 20 44
0 25 4 56 9 69 17 44 -14 41 -53 -6 -34 -41 -35 -42 -68 -28 -95 38 -103 40
-112 24 -4 -8 -5 -35 -1 -60 9 -59 -4 -50 -43 30 -39 78 -40 91 -9 80 12 -4
61 -7 109 -8 70 0 90 4 106 19 12 10 29 16 39 13 10 -3 28 -8 40 -12 21 -6 38
11 141 142 9 13 20 23 24 23 4 0 46 -15 94 -32z m-396 -18 c0 -34 -32 -76 -49
-65 -12 7 -15 77 -4 88 3 4 17 7 30 7 19 0 23 -5 23 -30z m92 -32 c-15 -15
-26 -4 -18 18 5 13 9 15 18 6 9 -9 9 -15 0 -24z m642 -40 c62 -9 70 -13 79
-39 6 -16 15 -29 19 -29 4 0 8 -20 8 -45 0 -41 4 -48 30 -63 39 -22 38 -30 -7
-37 -129 -21 -234 -72 -343 -164 -25 -22 -54 -34 -102 -43 l-68 -13 6 -85 c6
-82 17 -120 32 -120 4 0 32 20 62 45 30 24 93 60 140 80 47 20 97 42 112 50
28 16 68 20 68 8 -1 -5 -12 -21 -25 -38 -14 -16 -32 -56 -41 -87 -9 -32 -28
-69 -44 -85 -68 -70 -102 -158 -69 -179 11 -6 7 -62 -7 -98 -4 -10 -1 -16 9
-16 9 0 19 -9 22 -20 3 -11 13 -20 21 -20 26 0 14 -16 -21 -29 -34 -12 -85
-56 -131 -113 -12 -15 -38 -31 -60 -36 -84 -20 -171 -36 -214 -38 -25 -2 -64
-6 -87 -10 -39 -6 -42 -4 -57 25 -9 16 -22 34 -29 38 -7 4 -23 21 -35 37 -32
41 -28 96 13 211 26 71 34 106 29 130 -5 31 -4 33 28 40 72 14 221 68 244 89
l25 21 -15 94 c-8 52 -21 98 -28 102 -7 5 -37 9 -65 9 l-53 0 0 65 c0 64 1 67
43 109 23 23 64 71 91 105 63 80 89 99 187 136 84 32 105 33 233 13z m-705
-283 c3 -106 -6 -109 -73 -25 -40 50 -45 70 -18 70 11 0 27 9 37 20 10 11 26
20 35 20 14 0 17 -13 19 -85z m888 41 c-9 -7 -35 -16 -57 -20 -36 -6 -58 -21
-47 -32 3 -3 39 5 81 17 60 17 79 20 89 10 16 -16 -8 -31 -53 -31 -51 0 -112
-19 -107 -33 3 -7 10 -11 18 -9 73 17 113 21 125 11 25 -21 15 -29 -35 -29
-50 0 -111 -16 -111 -30 0 -4 27 -6 60 -3 52 5 60 4 60 -12 0 -15 -9 -17 -77
-14 -108 4 -175 -8 -261 -47 -41 -19 -78 -34 -83 -34 -5 0 -9 17 -9 39 0 34 6
43 45 76 110 89 247 149 355 153 23 1 24 0 7 -12z m-1308 -309 c23 -27 55 -60
71 -74 17 -13 30 -31 30 -39 0 -8 -16 -37 -35 -64 -19 -27 -35 -52 -35 -56 0
-3 -7 -13 -16 -21 -12 -12 -14 -27 -10 -57 20 -138 20 -153 -5 -170 -13 -8
-53 -26 -89 -40 -77 -29 -88 -25 -127 42 -15 26 -49 76 -75 111 -52 69 -59 91
-28 91 43 0 369 131 382 154 5 9 5 16 0 16 -16 0 -82 71 -102 110 -35 69 -22
68 39 -3z m185 -158 c22 -12 48 -25 56 -29 8 -4 18 -22 21 -41 6 -37 21 -68
52 -111 15 -20 18 -34 12 -60 -4 -18 -8 -66 -9 -105 0 -40 -2 -73 -4 -73 -11
0 -117 60 -164 93 -44 30 -64 53 -83 93 -14 30 -30 54 -35 54 -10 0 -1 17 57
115 16 28 32 58 36 68 8 22 11 21 61 -4z m221 -49 c-3 -5 -17 -10 -30 -10 -13
0 -27 5 -30 10 -4 6 8 10 30 10 22 0 34 -4 30 -10z m675 -85 c0 -25 -47 -78
-62 -69 -9 6 41 94 53 94 5 0 9 -11 9 -25z m-1520 -14 c0 -5 -7 -14 -15 -21
-12 -10 -18 -10 -30 0 -23 19 -18 30 15 30 17 0 30 -4 30 -9z m90 -84 c12 -38
19 -71 16 -74 -9 -9 -86 68 -86 85 0 21 33 73 41 64 4 -4 17 -38 29 -75z
m1460 44 c0 -5 -11 -16 -25 -25 -29 -19 -33 -11 -8 16 17 19 33 24 33 9z
m-1630 -16 c10 -12 9 -20 -4 -40 -30 -46 -71 -20 -48 31 13 27 34 31 52 9z
m1680 -32 c0 -16 -59 -73 -74 -73 -16 0 -3 30 25 58 35 36 49 40 49 15z
m-1650 -11 c0 -5 -9 -17 -20 -27 -23 -21 -26 -14 -8 15 13 20 28 27 28 12z
m130 -86 c0 -6 -20 10 -45 34 -25 24 -45 49 -45 54 0 6 20 -10 45 -34 25 -24
45 -49 45 -54z m-222 41 c2 -12 -1 -15 -12 -11 -22 8 -30 36 -9 32 10 -2 19
-11 21 -21z m194 -52 c12 -16 10 -23 -14 -47 l-21 -21 -45 47 -44 47 23 25 23
24 35 -32 c20 -18 39 -37 43 -43z m-228 30 c17 -13 16 -16 -25 -64 -47 -55
-62 -60 -91 -34 -26 23 -23 33 25 75 45 41 62 45 91 23z m776 -97 c1 -24 -78
-54 -81 -30 -1 4 -2 35 -3 70 l-2 64 43 -49 c23 -26 42 -51 43 -55z m-652 41
c18 -18 30 -34 28 -37 -6 -5 -74 49 -75 61 -2 15 16 6 47 -24z m546 15 c9 -24
-31 -92 -67 -114 -40 -25 -86 -25 -126 -2 -38 21 -39 32 -6 32 32 0 133 51
159 79 23 25 32 26 40 5z m-674 -44 c-23 -27 -46 -50 -51 -50 -6 0 9 22 33 50
24 27 47 50 51 50 5 0 -10 -22 -33 -50z m112 -7 c21 -20 38 -42 38 -48 0 -15
-79 -95 -94 -95 -6 0 -28 17 -49 38 l-36 37 39 45 c22 25 40 48 40 53 0 17 27
4 62 -30z m218 11 c0 -8 -4 -12 -10 -9 -5 3 -10 10 -10 16 0 5 5 9 10 9 6 0
10 -7 10 -16z m-70 -2 c0 -5 -9 -17 -20 -27 -23 -21 -26 -14 -8 15 13 20 28
27 28 12z m-389 -23 c16 -11 29 -27 29 -36 0 -12 -7 -10 -32 9 -53 41 -51 66
3 27z m459 -24 c36 -37 35 -55 -3 -79 -15 -9 -24 -4 -51 29 l-34 40 21 23 c11
12 23 22 27 22 3 0 21 -16 40 -35z m-485 -19 c28 -22 28 -24 13 -47 -9 -13
-41 -51 -72 -84 -53 -58 -56 -59 -71 -41 -8 11 -15 29 -15 41 0 33 85 155 108
155 4 0 20 -11 37 -24z m1027 -37 c43 -46 45 -51 22 -70 -15 -12 -18 -11 -28
5 -6 10 -23 34 -38 53 -27 34 -29 53 -5 53 6 0 28 -18 49 -41z m-108 -13 c68
-58 96 -115 96 -195 0 -59 -1 -62 -22 -59 -19 2 -23 -1 -22 -24 1 -32 2 -32
-44 -16 -30 11 -35 11 -48 -7 -8 -10 -14 -31 -14 -47 0 -28 -13 -37 -26 -17
-3 6 -19 9 -34 6 -42 -9 -91 49 -133 158 -19 50 -33 93 -30 98 2 4 18 7 34 7
48 0 104 35 143 90 20 27 39 50 42 50 4 0 30 -20 58 -44z m196 34 c0 -5 -6
-10 -14 -10 -8 0 -18 5 -21 10 -3 6 3 10 14 10 12 0 21 -4 21 -10z m-780 -4
c0 -3 -4 -8 -10 -11 -5 -3 -10 -1 -10 4 0 6 5 11 10 11 6 0 10 -2 10 -4z m806
-33 c-10 -10 -19 5 -10 18 6 11 8 11 12 0 2 -7 1 -15 -2 -18z m-983 -19 c21
-20 36 -38 33 -41 -6 -6 -86 57 -86 69 0 15 15 7 53 -28z m482 16 c22 -11 47
-20 57 -20 10 0 18 -4 18 -10 0 -19 -79 -11 -100 10 -17 17 -27 40 -17 40 1 0
20 -9 42 -20z m-355 -15 c-13 -14 -27 -25 -32 -25 -4 0 2 11 14 25 12 14 26
25 32 25 5 0 -1 -11 -14 -25z m117 -12 l25 -32 -42 -41 c-22 -22 -45 -40 -51
-40 -13 0 -69 55 -69 68 0 17 81 83 97 80 8 -2 27 -17 40 -35z m143 29 c0 -14
-39 -46 -47 -39 -3 4 2 16 13 26 20 21 34 26 34 13z m658 -4 c30 -30 1 -69
-33 -44 -12 9 -15 19 -11 34 8 24 26 28 44 10z m-1038 -77 c0 -11 -115 -121
-127 -121 -6 0 -27 7 -47 15 -33 14 -35 17 -25 38 13 23 59 85 93 124 l19 22
43 -36 c24 -19 44 -38 44 -42z m445 -41 c0 -21 -3 -42 -7 -45 -6 -6 -78 78
-78 91 0 4 8 16 17 26 16 18 17 18 43 -7 20 -19 26 -34 25 -65z m485 57 c0 -8
-9 -22 -20 -32 -22 -20 -27 -6 -8 25 15 23 28 26 28 7z m258 -3 c173 -43 245
-74 250 -110 2 -13 -18 -46 -54 -90 -31 -38 -61 -79 -67 -91 -9 -21 -17 -23
-99 -23 l-88 0 2 56 c4 75 -17 92 -120 98 -40 2 -76 7 -80 11 -4 4 8 19 27 34
19 14 62 49 95 78 34 29 63 53 64 53 2 0 34 -7 70 -16z m-198 -4 c0 -5 -2 -10
-4 -10 -3 0 -8 5 -11 10 -3 6 -1 10 4 10 6 0 11 -4 11 -10z m-1192 -45 c-32
-43 -48 -55 -48 -35 0 13 60 80 71 80 5 0 -5 -20 -23 -45z m448 -23 c-25 -25
-49 -43 -53 -39 -9 10 78 98 90 90 5 -3 -11 -26 -37 -51z m133 -3 c18 -22 31
-43 27 -46 -5 -5 -52 44 -69 73 -17 29 10 12 42 -27z m-377 6 c-35 -44 -81
-95 -87 -95 -17 0 1 30 42 72 50 51 78 65 45 23z m357 -37 c46 -51 46 -61 -3
-107 -22 -21 -28 -22 -43 -10 -38 28 -83 73 -83 83 0 12 72 87 80 84 3 -2 25
-24 49 -50z m-277 15 c15 -15 28 -34 28 -43 0 -8 -26 -42 -58 -73 l-59 -58
-27 41 -27 41 38 46 c21 25 42 51 48 59 14 20 25 18 57 -13z m67 -80 c-63 -82
-134 -161 -141 -157 -4 3 -8 12 -8 21 0 19 129 153 148 153 12 0 12 -3 1 -17z
m109 -36 c23 -23 42 -46 42 -50 0 -18 -22 -3 -60 43 -51 61 -40 66 18 7z m217
24 c3 -5 1 -12 -5 -16 -5 -3 -10 1 -10 9 0 18 6 21 15 7z m-242 -57 c20 -23
37 -48 37 -55 -1 -8 -28 -43 -62 -78 -53 -57 -66 -65 -96 -64 -40 1 -86 31
-90 59 -2 12 12 36 35 60 21 22 56 61 77 87 43 52 45 52 99 -9z m187 52 c0 -3
-4 -8 -10 -11 -5 -3 -10 -1 -10 4 0 6 5 11 10 11 6 0 10 -2 10 -4z m98 -80
c32 -5 23 -25 -15 -31 -21 -4 -51 -11 -67 -16 -41 -13 -53 -11 -60 7 -6 16 24
68 53 92 14 11 20 8 44 -18 16 -18 36 -33 45 -34z m-138 35 c0 -5 -7 -14 -15
-21 -16 -14 -18 -10 -9 14 6 17 24 22 24 7z m-10 -90 c0 -6 -4 -13 -10 -16 -5
-3 -10 1 -10 9 0 9 5 16 10 16 6 0 10 -4 10 -9z m-70 -9 c0 -13 -79 -86 -86
-79 -3 3 11 24 32 46 38 40 54 49 54 33z m266 -94 c0 -25 10 -69 22 -96 21
-48 21 -52 5 -98 -25 -74 -40 -93 -71 -89 -15 2 -39 4 -54 4 -25 1 -28 5 -28
33 0 17 -13 51 -29 77 -26 42 -61 136 -61 167 0 15 134 54 180 51 35 -2 35 -3
36 -49z m657 -174 c3 -4 -3 -24 -13 -44 -73 -144 -130 -347 -139 -503 -6 -91
-10 -111 -28 -129 -26 -26 -51 -18 -58 19 -3 15 -14 65 -25 109 -25 104 -25
190 0 289 18 71 74 192 103 222 12 12 106 41 138 42 9 1 18 -2 22 -5z m-265
-659 c7 -14 12 -34 12 -44 0 -10 8 -26 19 -35 18 -16 20 -15 49 14 21 20 40
30 61 30 34 0 41 -19 16 -40 -8 -7 -15 -19 -15 -26 0 -24 25 -15 49 17 13 17
25 28 28 26 3 -3 -6 -19 -18 -36 -18 -24 -20 -34 -11 -43 10 -10 18 -6 38 15
40 43 60 35 24 -10 -39 -50 -13 -74 30 -28 29 31 40 32 40 3 l0 -21 24 22 c19
18 30 21 60 16 41 -8 101 -45 98 -60 -4 -16 -46 -23 -156 -26 -97 -2 -105 -1
-137 23 -19 14 -43 28 -54 30 -11 2 -19 10 -17 16 1 7 1 12 0 13 -2 0 -34 3
-73 5 -58 4 -74 9 -92 30 -25 27 -31 81 -13 115 14 26 25 24 38 -6z m-153
-610 c6 -2 -14 -4 -43 -4 -29 -1 -51 3 -48 7 4 7 67 5 91 -3z m82 9 c-3 -3
-12 -4 -19 -1 -8 3 -5 6 6 6 11 1 17 -2 13 -5z M3071 3836 c-9 -11 -9 -20 -2
-35 6 -11 11 -22 11 -25 0 -11 -56 -6 -70 7 -7 6 -3 -2 11 -20 18 -23 30 -30
47 -26 26 6 52 -12 52 -37 0 -20 -23 -32 -45 -23 -21 8 -60 -27 -43 -39 23
-14 61 -8 95 15 27 18 33 28 33 59 0 26 -6 41 -22 52 -16 12 -19 18 -10 29 9
10 8 19 -4 35 -18 25 -37 28 -53 8z M2867 3777 c-2 -6 6 -20 18 -29 21 -16 24
-16 29 -1 7 18 -10 43 -29 43 -7 0 -15 -6 -18 -13z M2517 4130 c-56 -44 -41
-125 26 -147 32 -11 43 -10 67 2 43 22 55 50 41 96 -20 66 -83 89 -134 49z
m111 -60 c7 -12 11 -25 8 -28 -11 -10 -66 -5 -91 8 -27 14 -31 30 -15 61 11
19 11 19 48 0 20 -11 43 -29 50 -41z M1979 3983 c-13 -16 -12 -17 4 -4 16 13
21 21 13 21 -2 0 -10 -8 -17 -17z M2161 3364 c0 -11 3 -14 6 -6 3 7 2 16 -1
19 -3 4 -6 -2 -5 -13z M2488 3303 c7 -3 16 -2 19 1 4 3 -2 6 -13 5 -11 0 -14
-3 -6 -6z M1142 3264 c10 -10 20 -16 22 -13 3 3 -5 11 -17 18 -21 13 -21 12
-5 -5z M2425 3269 c-4 -6 -5 -12 -2 -15 2 -3 7 2 10 11 7 17 1 20 -8 4z M1882
3230 c0 -14 2 -19 5 -12 2 6 2 18 0 25 -3 6 -5 1 -5 -13z M2340 3176 c0 -2 8
-10 18 -17 15 -13 16 -12 3 4 -13 16 -21 21 -21 13z M1720 3130 c-1 -3 -3 -16
-6 -30 -3 -21 -2 -22 7 -7 6 10 8 23 5 30 -2 7 -5 10 -6 7z M695 2760 c21 -24
26 -25 19 -6 -3 8 -13 17 -22 21 -13 5 -13 2 3 -15z M734 2711 c20 -22 26 -25
26 -13 0 4 -10 13 -22 21 -23 14 -23 14 -4 -8z M4122 2120 c0 -14 2 -19 5 -12
2 6 2 18 0 25 -3 6 -5 1 -5 -13z M1589 1647 c-13 -29 -62 -55 -109 -59 -28 -2
-35 -7 -36 -24 -1 -21 37 -46 114 -74 40 -15 40 -29 2 -63 -16 -15 -30 -25
-30 -23 0 3 -55 -49 -122 -115 -108 -106 -153 -144 -217 -184 -9 -5 -34 -24
-56 -41 -23 -18 -75 -50 -117 -72 -42 -22 -101 -56 -131 -76 l-55 -36 -53 36
c-111 75 -246 124 -264 95 -9 -16 19 -58 45 -66 31 -10 13 -25 -30 -25 -25 0
-40 -5 -44 -16 -9 -23 -9 -23 27 -44 17 -11 30 -20 27 -21 -3 0 -27 -2 -53 -4
-45 -3 -77 -18 -77 -35 0 -7 19 -16 85 -40 l29 -11 -32 -21 c-38 -24 -41 -45
-7 -54 26 -6 221 1 290 11 37 6 41 4 53 -24 36 -83 153 -146 337 -181 66 -13
121 -24 123 -26 4 -2 -16 -151 -23 -171 -3 -9 -12 -10 -35 -1 -36 12 -48 5
-30 -17 11 -13 5 -15 -44 -15 -76 0 -63 -16 20 -25 72 -7 72 -25 1 -25 -46 0
-125 -19 -133 -32 -3 -5 -1 -15 5 -22 7 -8 10 -20 9 -27 -2 -7 12 -16 32 -20
89 -21 798 9 849 36 l26 13 -26 11 c-31 11 -165 31 -443 66 -109 13 -201 27
-203 29 -6 5 15 168 23 191 4 8 28 16 62 20 32 4 74 11 94 16 20 5 40 8 45 7
4 -1 26 7 48 17 64 29 107 25 143 -13 16 -17 35 -32 42 -32 6 0 8 -4 5 -10 -3
-5 -3 -10 2 -10 4 0 15 -4 22 -9 12 -8 11 -13 -10 -31 l-24 -21 25 3 c21 3 26
-2 28 -25 2 -16 8 -26 15 -24 7 2 11 14 10 26 -3 23 7 27 25 9 17 -17 28 0 14
22 -7 11 -12 22 -12 25 0 3 28 5 63 6 34 0 55 3 47 6 -8 4 -21 12 -28 20 -10
10 -28 12 -62 7 -42 -6 -56 -3 -97 21 -26 15 -58 37 -70 48 -21 19 -22 22 -7
39 9 10 38 31 63 47 44 29 94 87 139 161 11 19 21 38 21 43 0 4 7 20 16 36 11
23 34 197 35 266 0 7 14 9 34 7 44 -5 60 22 53 85 -4 34 -13 54 -41 82 l-37
38 25 17 c14 9 32 29 41 45 14 28 14 30 -6 36 -11 4 -35 4 -53 1 -29 -6 -35
-2 -63 38 -18 25 -51 57 -75 72 -24 15 -45 30 -48 33 -13 17 -126 85 -137 83
-6 -1 -14 2 -18 8 -11 18 -45 10 -56 -13z m134 -54 l58 -35 -73 -32 c-48 -22
-80 -30 -93 -25 -92 33 -135 53 -135 60 0 12 5 12 72 -7 62 -18 84 -13 52 11
-19 14 -19 14 1 14 11 0 31 -6 45 -14 60 -34 70 -2 10 35 -22 14 -40 28 -40
33 0 13 40 -2 103 -40z m119 -82 c19 -11 39 -17 44 -13 4 4 4 2 0 -5 -3 -6 3
-27 14 -45 20 -35 39 -168 40 -276 0 -44 -4 -57 -22 -72 -13 -11 -30 -17 -40
-14 -22 7 -31 -11 -13 -26 15 -12 55 -5 55 11 0 5 5 9 10 9 17 0 10 -54 -10
-79 -21 -25 -50 -23 -50 4 0 19 -10 19 -24 0 -10 -14 -15 -12 -43 15 -27 27
-32 28 -38 13 -6 -16 -8 -16 -26 6 -24 29 -36 20 -20 -15 10 -22 16 -25 39
-21 21 4 31 1 41 -15 9 -14 20 -19 36 -15 14 2 26 0 28 -6 2 -6 17 -10 35 -9
l31 1 -6 -47 c-8 -62 -40 -125 -59 -118 -8 3 -14 -1 -14 -9 0 -8 -7 -15 -15
-15 -8 0 -15 8 -15 18 0 28 -11 34 -31 16 -22 -20 -49 -12 -49 16 0 24 -18 27
-27 5 -8 -22 26 -57 52 -53 12 1 29 -5 38 -14 9 -9 22 -18 29 -20 13 -5 -49
-82 -95 -119 -36 -27 -173 -95 -222 -108 -22 -6 -83 -16 -136 -21 -83 -9 -110
-8 -199 10 -126 24 -223 60 -272 100 -66 55 -95 150 -68 226 13 35 66 76 191
147 100 57 270 178 305 218 28 32 207 198 236 217 13 9 34 27 48 39 32 30 137
83 164 83 12 0 38 -9 58 -19z m178 -116 c0 -8 -53 -54 -62 -55 -5 0 -8 14 -8
30 0 28 3 30 35 30 19 0 35 -2 35 -5z m-16 -135 c27 -30 36 -49 36 -75 0 -86
-73 -35 -84 59 -5 34 -4 56 2 56 5 0 26 -18 46 -40z m-1381 -284 c45 -19 186
-95 206 -112 2 -2 2 -7 -2 -10 -3 -4 -56 15 -117 42 -157 68 -237 141 -87 80z
m68 -105 c104 -36 119 -43 119 -58 0 -10 -6 -13 -16 -9 -9 4 -51 13 -92 22
-99 20 -163 42 -182 61 -13 14 -8 15 51 9 37 -3 91 -15 120 -25z m52 -82 c94
-20 69 -32 -55 -26 -118 5 -218 24 -218 40 0 13 195 3 273 -14z m7 -66 l35 -6
-35 -8 c-67 -15 -250 -22 -250 -10 0 6 3 11 8 11 4 1 30 7 57 15 47 13 102 12
185 -2z m470 -553 c-8 -5 -40 -9 -70 -9 -42 1 -49 3 -30 9 38 12 119 12 100 0z
m197 -46 c-9 -9 -68 -11 -73 -2 -3 4 14 8 37 8 23 0 40 -3 36 -6z m76 -1 c-7
-2 -19 -2 -25 0 -7 3 -2 5 12 5 14 0 19 -2 13 -5z M1751 1424 c-48 -40 -42
-102 11 -130 86 -45 158 66 88 136 -27 27 -62 25 -99 -6z m89 -23 c26 -49 -1
-108 -44 -95 -30 9 -32 13 -11 28 18 13 18 26 0 69 -11 25 41 23 55 -2z M1736
1138 c-4 -9 -5 -22 -1 -28 8 -13 35 -13 35 0 0 6 -4 10 -9 10 -5 0 -11 8 -14
18 -4 16 -4 16 -11 0z M1792 1104 c2 -21 9 -30 26 -32 24 -4 37 16 29 45 -4
16 -6 15 -12 -4 -8 -26 -25 -31 -25 -9 0 8 -5 18 -11 21 -7 5 -9 -3 -7 -21z
M1537 1074 c-4 -5 -20 -9 -35 -11 -86 -8 -143 -22 -176 -41 -60 -36 -265 -192
-286 -219 -24 -31 -27 -73 -4 -73 11 0 14 -5 10 -16 -5 -14 8 -15 126 -10 141
5 206 23 297 80 91 58 180 196 149 233 -7 9 -13 26 -13 37 0 16 -7 22 -30 24
-17 2 -34 0 -38 -4z m-37 -44 c0 -5 -5 -10 -11 -10 -5 0 -7 5 -4 10 3 6 8 10
11 10 2 0 4 -4 4 -10z m85 -83 c-18 -39 -85 -121 -92 -113 -2 2 19 41 48 86
52 80 77 95 44 27z m-75 29 c0 -37 -72 -96 -162 -135 -62 -26 -72 -9 -12 20
26 12 70 46 98 75 51 53 76 66 76 40z M1687 1003 c-12 -11 -8 -58 6 -77 15
-20 48 -18 55 3 3 10 0 12 -11 8 -21 -8 -41 26 -32 53 6 19 -5 27 -18 13z
M1760 907 c0 -18 21 -37 42 -37 9 0 22 -9 28 -20 14 -27 49 -26 59 3 11 28 3
38 -11 14 -9 -17 -11 -16 -33 7 -13 14 -30 23 -38 20 -8 -3 -17 2 -20 10 -8
19 -27 21 -27 3z"/>
</g>
</svg>
